<svg width="74" height="42" viewBox="0 0 74 42" fill="none" xmlns="http://www.w3.org/2000/svg">
<path d="M72.4267 18.6863C71.5561 19.4002 70.6628 20.1051 70.0091 21.0295C68.9022 22.5947 67.4382 23.7824 66.005 25.0008C64.7017 26.1087 63.1781 26.7575 61.4785 26.9683C60.9677 27.0317 60.4385 27.3087 60.0811 26.6001C59.9159 26.2727 59.5271 26.4697 59.257 26.5968C58.5236 26.9415 57.7991 27.3057 57.0854 27.6552C56.8907 27.4797 56.9669 27.2905 56.9657 27.1164C56.9581 26.0341 56.5833 25.8069 55.6282 26.3237C55.3357 26.482 55.0622 26.6774 54.7855 26.8644C54.1605 27.2868 53.5389 27.7144 52.7545 28.2501C52.852 27.9055 52.8867 27.7922 52.9158 27.6777C53.0287 27.2352 53.4878 26.7452 52.9251 26.36C52.4178 26.0128 52.1005 26.5661 51.7623 26.8108C50.8206 27.4923 49.9733 28.3111 48.6767 28.9622C49.0054 28.3727 49.2276 28.0195 49.4055 27.6451C49.7045 27.0155 50.5245 26.3586 49.9452 25.6945C49.4099 25.0805 48.5852 25.6537 47.9083 25.8565C46.9079 26.156 46.0482 26.7872 44.908 27.293C45.7882 25.4019 46.6399 23.7654 47.9093 22.3809C48.1539 22.1141 48.4458 21.794 48.0045 21.4589C47.631 21.1755 47.414 21.4722 47.1785 21.7306C45.8676 23.1699 44.5674 24.6204 43.2223 26.0269C42.255 27.0385 41.1813 27.9352 40.026 28.7303C39.5267 29.0739 39.3029 28.9724 39.1875 28.3678C39.0267 27.5242 38.7346 27.4082 38.0197 27.8834C37.3628 28.3199 36.7432 28.813 36.0952 29.2637C35.752 29.5026 35.3811 29.9567 34.9972 29.7972C34.5628 29.6168 34.8063 29.0447 34.7677 28.6426C34.6945 27.8784 34.3416 27.672 33.6849 28.0792C33.1735 28.396 32.7053 28.7832 32.2178 29.1393C31.5338 29.577 30.8497 30.0146 30.1029 30.4925C30.0276 29.7302 30.3456 29.1621 30.6346 28.6174C31.1914 27.5683 31.8264 26.5617 32.409 25.5263C32.9755 24.5198 33.6461 23.5556 33.8961 22.4025C34.0578 21.657 33.6908 21.3487 32.9819 21.6121C32.6156 21.7482 32.2679 21.9475 31.9318 22.1513C30.2363 23.1791 28.6865 24.3992 27.2602 25.78C26.0255 26.9753 24.7863 28.1659 23.4911 29.4144C23.9143 28.4543 24.3498 27.5605 24.7076 26.636C25.5798 24.3822 26.7691 22.2865 27.828 20.1255C28.0108 19.7524 28.4257 19.2819 28.0292 18.8777C27.6069 18.4471 27.1784 18.9315 26.806 19.1203C25.3149 19.876 23.8912 20.7535 22.5154 21.705C17.201 25.381 12.3869 29.664 7.70651 34.1093C7.47234 34.3318 7.29432 34.7323 6.88289 34.6201C8.92862 31.6877 10.9648 28.765 13.005 25.8448C15.7614 21.8996 18.8713 18.2099 21.3985 14.0995C22.5016 12.3052 23.5029 10.4555 24.0801 8.40921C24.887 5.54915 24.1751 3.36889 21.9867 1.87387C20.845 1.09385 19.5813 0.758629 18.2178 0.706615C15.877 0.617275 13.7378 1.37605 11.6431 2.29224C10.5049 2.79007 9.37472 3.32232 8.43716 4.17777C8.24043 4.35721 8.07887 4.58436 8.24771 4.81012C8.4741 5.11282 8.68063 4.80797 8.84533 4.67712C9.931 3.81433 11.2019 3.29385 12.446 2.74413C14.2624 1.94133 16.1526 1.40351 18.1723 1.48956C22.429 1.67128 24.5794 4.81683 23.2108 8.85478C22.3799 11.3057 21.0394 13.4818 19.638 15.6238C17.3169 19.1714 14.6068 22.4343 12.1955 25.9165C8.72686 30.9253 5.33226 35.9911 1.19206 40.4854C0.98138 40.7138 0.72774 40.9667 1.00186 41.2699C1.2751 41.5719 1.56455 41.332 1.80965 41.1609C1.98226 41.0405 2.14419 40.8929 2.27824 40.73C3.55751 39.1752 4.9697 37.7479 6.3937 36.3299C11.8151 30.9315 17.4708 25.8153 23.8585 21.5796C24.8259 20.9383 25.8169 20.3295 27.0642 19.8118C26.8814 20.2338 26.7803 20.4808 26.6688 20.723C26.0573 22.0517 25.2644 23.2856 24.7206 24.6529C23.6609 27.3167 22.4737 29.9233 21.074 32.427C20.9017 32.7355 20.5708 33.0846 21.0407 33.3643C21.4762 33.6236 21.6667 33.2233 21.8824 32.9198C24.1005 29.795 26.7521 27.0788 29.6683 24.6206C30.6455 23.7968 31.6723 23.0275 33.0336 22.4583C32.5846 23.6303 32.086 24.5312 31.5451 25.4157C30.4323 27.2358 29.331 29.0648 28.8115 31.172C28.7319 31.4952 28.5995 31.8256 28.9221 32.102C29.2727 32.4024 29.537 32.1586 29.8063 31.9598C30.7339 31.2748 31.6603 30.5879 32.5872 29.9018C32.9375 29.673 33.2878 29.4443 33.6467 29.2098C34.2953 31.1379 34.9393 31.3183 36.5657 30.0607C36.9737 29.7452 37.3772 29.4233 37.78 29.1007C38.0545 28.8809 38.231 28.7847 38.4556 29.2237C38.958 30.206 39.4119 30.3177 40.3286 29.6932C41.5127 28.8867 42.506 27.8488 43.5392 26.8621C43.7963 26.6168 44.047 26.3645 44.3006 26.1154C44.0913 26.9257 43.7963 27.6233 43.4902 28.3159C43.3339 28.6693 43.3687 28.9924 43.6869 29.2061C43.985 29.4063 44.2521 29.2487 44.5012 29.0297C44.8888 28.6892 45.2844 28.355 45.6987 28.0485C46.6404 27.3522 47.6558 26.8077 48.9181 26.4639C48.4985 27.3247 48.1255 28.0191 47.82 28.7427C47.6295 29.1939 47.4907 29.7542 47.9042 30.1187C48.3712 30.5299 48.8139 30.1106 49.2037 29.8419C50.004 29.2904 50.7868 28.7131 51.6647 28.0833C51.6444 28.4274 51.6192 28.6077 51.6266 28.7868C51.6406 29.1227 51.6441 29.4681 52.0218 29.6406C52.3903 29.8091 52.6691 29.6148 52.9359 29.4106C53.2251 29.1893 53.4845 28.9277 53.7785 28.7135C54.4471 28.2265 55.0358 27.6113 55.8516 27.3039C56.0689 28.9622 56.5767 29.191 57.9299 28.2999C58.082 28.1997 58.2303 28.0927 58.3859 27.9984C58.8668 27.7072 59.3254 27.3106 59.8275 28.0199C59.9995 28.2629 60.3761 28.2422 60.6857 28.1974C63.0808 27.8513 65.2653 27.0468 67.0042 25.2637C67.3583 24.9005 67.7061 24.5238 68.2809 24.2207C68.1721 24.9582 68.075 25.5784 67.9905 26.2003C67.915 26.7561 67.962 27.3011 68.2299 27.8025C68.3555 28.0376 68.5746 28.1607 68.8413 28.0566C69.09 27.9593 69.0638 27.7549 69.0201 27.5232C68.5786 25.19 69.3 23.1994 70.8526 21.4879C71.5262 20.7452 72.2673 20.0637 72.9903 19.3676C73.209 19.157 73.5465 18.99 73.2352 18.6428C72.981 18.3596 72.6859 18.4738 72.4267 18.6863Z" fill="black"/>
</svg>
