<svg width="17" height="17" viewBox="0 0 17 17" fill="none" xmlns="http://www.w3.org/2000/svg">
<path d="M16.999 16.4636C16.9797 16.05 17.0198 15.6302 16.9661 15.2219C16.867 14.4764 16.2876 13.9724 15.5351 13.9134C15.5133 13.9114 15.492 13.9071 15.4601 13.9027V6.96641C15.5162 6.96302 15.5738 6.95722 15.6318 6.95674C15.9413 6.95577 16.2513 6.96012 16.5609 6.9548C16.8549 6.95045 16.9942 6.80533 16.9952 6.51025C16.9966 6.03425 16.9927 5.55873 16.9971 5.08322C16.999 4.89166 16.9202 4.76057 16.7567 4.66382C14.2665 3.18697 11.7783 1.7077 9.28807 0.231328C8.75415 -0.085037 8.21587 -0.0719761 7.68533 0.242937C5.20529 1.71447 2.72621 3.18745 0.249068 4.6643C0.150892 4.72332 0.0822167 4.83168 0 4.9173V6.67665C0.101562 6.89433 0.276151 6.96689 0.510227 6.95915C0.846349 6.94803 1.18295 6.95625 1.53262 6.95625V13.9051C1.0751 13.9303 0.686268 14.0991 0.379164 14.4435C0.174106 14.6733 0.0764132 14.9515 0 15.2407V16.7345C0.0885039 16.8231 0.177008 16.9116 0.265512 17.0001H16.7301C16.9429 16.883 17.0102 16.7021 16.999 16.4636ZM0.770419 6.1726C0.770419 5.87752 0.764615 5.59114 0.776222 5.30525C0.778157 5.2593 0.849734 5.20415 0.900998 5.17368C2.15843 4.42292 3.41731 3.67506 4.6762 2.9272C5.80208 2.25819 6.92942 1.59257 8.05289 0.919687C8.34838 0.742639 8.6313 0.733447 8.92728 0.909528C11.3208 2.33317 13.7147 3.75584 16.1101 5.1761C16.1981 5.22834 16.2305 5.28591 16.2281 5.38652C16.2214 5.64484 16.2257 5.90364 16.2257 6.1726H0.770419ZM14.6689 6.96786V13.9018H13.1484V6.96786H14.6689ZM12.3499 6.96786V13.9022H10.0532V6.96786H12.3499ZM9.25518 6.96399V13.9013H7.74046V6.96399H9.25518ZM6.94248 6.96786V13.9022H4.6525V6.96786H6.94248ZM3.84678 6.96786V13.9066H2.33205V6.96786H3.84678ZM16.2257 16.2203H0.787346C0.787346 15.9131 0.76123 15.6137 0.794117 15.3206C0.834258 14.9568 1.14475 14.7048 1.51327 14.682C1.5684 14.6791 1.62402 14.6806 1.67916 14.6806H15.3175C15.9259 14.6806 16.2252 14.979 16.2257 15.5852C16.2262 15.7937 16.2257 16.0022 16.2257 16.2203Z" fill="#999999"/>
</svg>
