<svg width="65" height="44" viewBox="0 0 65 44" fill="none" xmlns="http://www.w3.org/2000/svg">
<path d="M33.2301 15.5979C29.305 15.5979 25.8893 17.8221 24.1691 21.0873C22.4484 17.8221 19.0344 15.5979 15.1066 15.5979C12.8002 15.5979 10.6695 16.3665 8.9502 17.6644V8.95933C8.92986 7.83449 8.01921 6.93408 6.89875 6.93408C5.77827 6.93408 4.87647 7.83449 4.85083 8.95933V26.1012H4.8529C4.94337 31.7295 9.49657 36.2637 15.1066 36.2637C19.0344 36.2637 22.4484 34.0375 24.1691 30.7754C25.8893 34.0375 29.305 36.2637 33.2301 36.2637C38.8932 36.2637 43.4871 31.6379 43.4871 25.9287C43.4871 20.2225 38.8932 15.5979 33.2301 15.5979ZM15.1066 32.1268C11.7083 32.1268 8.9502 29.3537 8.9502 25.9302C8.9502 22.5079 11.7083 19.7345 15.1066 19.7345C18.5045 19.7345 21.2568 22.5079 21.2568 25.9287C21.2568 29.3528 18.5045 32.1268 15.1066 32.1268ZM33.2301 32.1268C29.831 32.1268 27.0749 29.3528 27.0749 25.9287C27.0749 22.5079 29.831 19.7345 33.2301 19.7345C36.6278 19.7345 39.3824 22.5079 39.3824 25.9287C39.3824 29.3528 36.6278 32.1268 33.2301 32.1268Z" fill="#6A6F73"/>
<path d="M59.4029 32.8043L53.8277 25.9154L59.4097 19.0132C60.1155 18.1027 59.913 16.8312 58.9387 16.1558C57.9633 15.4745 56.5946 15.649 55.8399 16.5325V16.5313L51.0374 22.4604L46.2393 16.5313V16.5325C45.4921 15.649 44.115 15.4745 43.1425 16.1558C42.17 16.8317 41.9666 18.1027 42.676 19.0132H42.674L48.2462 25.9154L42.674 32.8043H42.676C41.9666 33.7177 42.17 34.9851 43.1425 35.6634C44.115 36.3418 45.4921 36.169 46.2393 35.2843L51.0374 29.3635L55.8332 35.2843C56.5887 36.169 57.9568 36.3418 58.9323 35.6634C59.9068 34.9851 60.1102 33.7177 59.4029 32.8043Z" fill="#6A6F73"/>
</svg>
