<svg width="20" height="20" viewBox="0 0 20 20" fill="none" xmlns="http://www.w3.org/2000/svg">
<g clip-path="url(#clip0_329_4585)">
<path d="M20 10.8195C19.915 11.0377 19.9264 11.2721 19.892 11.4987C19.6239 13.2427 18.9423 14.8066 17.8455 16.1826C16.2981 18.1239 14.2995 19.3433 11.866 19.8314C11.2564 19.9535 10.6362 20.0251 10.0099 19.9922C8.67317 20.0042 7.38445 19.752 6.163 19.216C3.35503 17.9835 1.40083 15.9252 0.496998 12.989C-0.589369 9.46338 0.115752 6.24576 2.50492 3.44C4.11805 1.54513 6.20525 0.455186 8.66691 0.0876964C8.82911 0.0636843 8.99914 0.0809104 9.1509 0C9.08675 0.146161 8.94229 0.10701 8.83433 0.120061C8.29036 0.185311 7.75787 0.299629 7.23268 0.453098C5.81879 0.867046 4.56709 1.57123 3.45882 2.54163C2.45121 3.42381 1.66212 4.47043 1.07069 5.6679C0.549673 6.72235 0.224754 7.83943 0.118882 9.00976C-0.131979 11.7816 0.628426 14.259 2.41574 16.3877C3.97723 18.2482 5.97525 19.3945 8.37798 19.8084C8.91621 19.9008 9.45861 19.9588 10.0062 19.9462H10.0427C12.4882 19.9368 14.6365 19.1152 16.4864 17.5241C18.2257 16.0276 19.3136 14.1384 19.7747 11.8891C19.8362 11.59 19.8701 11.2857 19.9108 10.9835C19.9191 10.9208 19.8925 10.8315 20 10.8195V10.8195Z" fill="#FEFEFE"/>
<path d="M10.0714 19.6967C10.0709 19.7808 10.0834 19.8695 10.0427 19.9462C10.0339 19.9619 10.0234 19.9776 10.0099 19.9922C8.67317 20.0042 7.38445 19.752 6.163 19.216C3.35504 17.9835 1.40083 15.9252 0.496998 12.989C-0.589369 9.46338 0.115752 6.24576 2.50493 3.44C4.11805 1.54513 6.20525 0.455186 8.66692 0.0876964C8.82911 0.0636843 8.99914 0.0809104 9.15091 0H9.30684C9.32823 0.0234901 9.35691 0.0193141 9.38403 0.0203581H9.39916C9.42211 0.0198361 9.44505 0.0198361 9.46331 0H9.61925C9.71052 0.0323641 9.80126 0.0323641 9.89253 0H10.0094C10.0563 0.0511562 10.0693 0.114319 10.0693 0.180091C10.0714 0.8707 10.0792 1.56183 10.0657 2.25296C10.0652 2.27854 10.0573 2.30412 10.05 2.32813C10.0407 2.35162 10.0287 2.36937 10.0151 2.38294C10.0141 2.38399 10.0135 2.38503 10.0125 2.38607H10.012C10.012 2.38607 10.0104 2.38816 10.0094 2.38868C9.95981 2.43305 9.88784 2.4294 9.82004 2.43358C9.33292 2.4602 8.84946 2.51031 8.37172 2.61784C7.16123 2.88928 6.08164 3.42329 5.13922 4.22874C3.62832 5.52018 2.74327 7.15613 2.50336 9.12826C2.33908 10.4808 2.54404 11.7852 3.09322 13.0365C3.50732 13.9803 4.0878 14.8066 4.83829 15.5056C6.01958 16.6044 7.40844 17.2825 9.01583 17.4902C9.29276 17.5257 9.5697 17.5607 9.84977 17.5664C9.90818 17.568 9.96711 17.5716 10.0094 17.6098C10.0104 17.6108 10.0114 17.6113 10.0125 17.6124L10.0161 17.616C10.0281 17.6285 10.0386 17.6442 10.0469 17.6635C10.0787 17.758 10.0719 17.8556 10.0719 17.9522C10.0725 18.5337 10.0735 19.1152 10.0714 19.6967Z" fill="#FCBE00"/>
<path d="M20 10.3508C19.9682 10.4291 19.9682 10.5069 20 10.5852V10.8195C19.915 11.0377 19.9265 11.2721 19.8921 11.4987C19.624 13.2427 18.9423 14.8066 17.8455 16.1826C16.2981 18.1239 14.2996 19.3433 11.8661 19.8314C11.2564 19.9535 10.6363 20.0251 10.0099 19.9922V19.9462C10.0099 19.1695 10.0099 18.3928 10.0094 17.616C10.0094 17.616 10.0115 17.6134 10.0125 17.6124C10.0188 17.6061 10.025 17.6004 10.0313 17.5941C10.279 17.5294 10.5341 17.5607 10.7855 17.5335C12.3115 17.3707 13.6597 16.7949 14.8368 15.8167C15.943 14.8969 16.7268 13.7495 17.1915 12.3871C17.5123 11.4449 17.6322 10.4703 17.5608 9.48217C17.4439 7.85822 16.8656 6.40758 15.8136 5.15895C14.6302 3.75424 13.135 2.87414 11.3258 2.54163C10.968 2.47586 10.6071 2.42679 10.2415 2.43357C10.1706 2.43462 10.0981 2.44036 10.0313 2.40486L10.0125 2.38607H10.012C10.012 2.38607 10.0104 2.38398 10.0094 2.38294V0H10.3609C10.4386 0.0318421 10.5169 0.0318421 10.5951 0H10.8293C11.1876 0.0490682 11.5505 0.0443702 11.9078 0.117973C13.6576 0.47972 15.2159 1.22932 16.5652 2.40382C18.2977 3.91189 19.3893 5.79736 19.8691 8.04197C19.952 8.43034 19.9588 8.82602 20 9.21804V10.3508Z" fill="#FE9000"/>
<path d="M9.89255 0C9.80128 0.0605523 9.71053 0.0626403 9.61926 0H9.89255Z" fill="#FCC417"/>
<path d="M10.5951 0C10.5169 0.0605523 10.4392 0.0584643 10.361 0H10.5951Z" fill="#FEA214"/>
<path d="M20 10.5852C19.9395 10.5069 19.9416 10.4291 20 10.3508V10.5852Z" fill="#FEA315"/>
<path d="M9.38355 0.0334082C9.35174 0.0370622 9.31992 0.0407162 9.30688 0H9.38512C9.39815 0.00783004 9.40233 0.0156601 9.39763 0.0229681C9.39294 0.0297541 9.38825 0.0334082 9.38355 0.0334082Z" fill="#FDE392"/>
<path d="M9.38354 0.0334082C9.38459 0.0224461 9.38511 0.010962 9.38511 0H9.46334C9.44717 0.0360182 9.41744 0.0391502 9.38354 0.0334082Z" fill="#FDDB73"/>
<path d="M10.0099 17.6155C5.81201 17.6045 2.39175 14.1958 2.40114 9.97911C2.41001 5.79213 5.81983 2.38972 10.0099 2.38293C10.0772 2.45758 10.0725 2.55102 10.0725 2.64133C10.074 3.25259 10.074 3.86386 10.0725 4.47512C10.0725 4.55916 10.0751 4.64529 10.0245 4.71994C9.94626 4.79615 9.84508 4.78571 9.74964 4.78623C9.35431 4.78884 8.9595 4.78571 8.56418 4.78832C8.3347 4.78989 8.31853 4.80659 8.31592 5.02844C8.31384 5.22941 8.32009 5.43038 8.31384 5.63136C8.30914 5.78274 8.37433 5.83859 8.52141 5.83702C8.92299 5.83389 9.32458 5.83441 9.72617 5.83702C9.82213 5.83755 9.92174 5.82711 10.0083 5.88661C10.0579 5.9362 10.0667 6.00093 10.0673 6.06566C10.0693 6.36164 10.0824 6.65813 10.06 6.95359C10.0412 7.06477 9.95669 7.13002 9.88367 7.2031C9.01218 8.07641 8.13964 8.9492 7.26763 9.82199C7.09135 9.99843 7.09135 9.99947 7.26293 10.1717C8.13495 11.045 9.00748 11.9173 9.87898 12.7911C9.95147 12.8642 10.037 12.9289 10.0579 13.0407C10.0829 13.3361 10.0683 13.631 10.0678 13.9265C10.0678 13.9907 10.0594 14.0554 10.0141 14.1071C9.93009 14.1718 9.82995 14.1609 9.73399 14.1614C9.33866 14.1635 8.94386 14.1598 8.54853 14.163C8.3347 14.1645 8.31853 14.1823 8.31592 14.3984C8.31384 14.5863 8.31384 14.7742 8.31592 14.9621C8.31801 15.1908 8.33365 15.208 8.55687 15.2096C8.95168 15.2122 9.34701 15.2091 9.74233 15.2117C9.8383 15.2122 9.93843 15.2017 10.0203 15.2727C10.0667 15.3333 10.0714 15.4048 10.0719 15.4758C10.0756 16.1163 10.0746 16.7568 10.0725 17.3973C10.0725 17.4751 10.0673 17.5534 10.0104 17.616L10.0099 17.6155Z" fill="#FED92D"/>
<path d="M10.0078 14.0988C10.0078 13.7208 10.0083 13.3429 10.0089 12.9655C9.99425 12.8538 10.0876 12.8079 10.1481 12.7468C11.0055 11.885 11.8655 11.0257 12.7245 10.1655C12.9097 9.97964 12.9107 9.9786 12.7323 9.80164C11.8478 8.92259 10.9659 8.04093 10.0876 7.15613C10.0532 7.12168 9.99634 7.09924 10.0094 7.03294C10.0094 6.65501 10.0089 6.2776 10.0083 5.89967C10.0167 5.89132 10.0255 5.88297 10.0339 5.8741C10.1377 5.82137 10.2498 5.8386 10.3593 5.83756C10.7359 5.83547 11.1119 5.83286 11.4885 5.8386C11.6439 5.84069 11.7143 5.7864 11.7075 5.62406C11.6992 5.41682 11.6992 5.20854 11.7075 5.00079C11.7138 4.83844 11.6444 4.78363 11.4885 4.7852C11.0926 4.7899 10.6968 4.78781 10.3014 4.78624C10.2112 4.78624 10.1189 4.79512 10.0344 4.75023C10.0261 4.74187 10.0172 4.733 10.0089 4.72465C10.0089 3.94425 10.0099 3.16334 10.0104 2.38294C14.0852 2.32187 17.8085 5.81615 17.6244 10.3414C17.4669 14.2058 14.2083 17.6411 10.0104 17.616C10.0104 16.8356 10.0094 16.0547 10.0089 15.2743C10.0172 15.266 10.0261 15.2576 10.0344 15.2487C10.1382 15.196 10.2503 15.2132 10.3598 15.2122C10.7364 15.2101 11.1124 15.2075 11.489 15.2132C11.6444 15.2153 11.7148 15.161 11.708 14.9987C11.6997 14.7915 11.6997 14.5832 11.708 14.3754C11.7143 14.2131 11.6449 14.1583 11.489 14.1598C11.0931 14.1645 10.6973 14.1624 10.302 14.1609C10.2117 14.1609 10.1194 14.1698 10.0349 14.1249C10.0266 14.1165 10.0177 14.1076 10.0094 14.0993L10.0078 14.0988Z" fill="#FCBE00"/>
<path d="M12.8643 10.1112C11.9115 11.0612 10.9602 12.0134 10.0089 12.9655V7.03294C10.9654 7.98873 11.9209 8.94556 12.8816 9.89717C12.9806 9.99531 12.9363 10.0392 12.8643 10.1112Z" fill="#FCBE00"/>
<path d="M10.0089 7.03294V12.9655C9.04767 12.0071 8.08752 11.0477 7.12371 10.0924C7.03505 10.0052 7.06843 9.96138 7.13779 9.89247C7.64473 9.38926 8.14801 8.88188 8.65391 8.37762C9.10452 7.92818 9.55722 7.48134 10.0089 7.03294Z" fill="#FED92D"/>
<path d="M10.0079 5.89967C9.48945 5.89914 8.97157 5.89184 8.45316 5.90175C8.28626 5.90489 8.24298 5.84903 8.25028 5.69139C8.26227 5.43926 8.26227 5.18557 8.25028 4.93292C8.24298 4.77527 8.28678 4.71942 8.45316 4.72255C8.97104 4.73247 9.48945 4.72516 10.0079 4.72464L10.011 4.72777C10.0585 4.77841 10.0684 4.84209 10.0694 4.90682C10.0741 5.17669 10.0741 5.44709 10.0694 5.71697C10.0684 5.78169 10.0585 5.84538 10.011 5.89601L10.0079 5.89914V5.89967Z" fill="#FCBE00"/>
<path d="M10.0079 15.2738C9.48945 15.2733 8.97157 15.266 8.45316 15.2759C8.28626 15.279 8.24298 15.2231 8.25028 15.0655C8.26227 14.8134 8.26227 14.5597 8.25028 14.307C8.24298 14.1494 8.28678 14.0935 8.45316 14.0967C8.97104 14.1066 9.48945 14.0993 10.0079 14.0988L10.011 14.1019C10.0585 14.1525 10.0684 14.2162 10.0694 14.2809C10.0741 14.5508 10.0741 14.8212 10.0694 15.0911C10.0684 15.1558 10.0585 15.2195 10.011 15.2701L10.0079 15.2733V15.2738Z" fill="#FCBE00"/>
<path d="M10.0115 5.89654C10.0115 5.50713 10.0115 5.11771 10.0115 4.72778C10.5361 4.72778 11.0608 4.72987 11.5855 4.72412C11.7127 4.72256 11.7743 4.74918 11.7691 4.8943C11.7592 5.17252 11.7592 5.45179 11.7691 5.73054C11.7743 5.87566 11.7127 5.90176 11.5855 5.90072C11.0608 5.89497 10.5361 5.89758 10.0115 5.89706V5.89654Z" fill="#FE9000"/>
<path d="M10.0115 15.2707C10.0115 14.8812 10.0115 14.4918 10.0115 14.1019C10.5361 14.1019 11.0608 14.104 11.5855 14.0982C11.7127 14.0967 11.7743 14.1233 11.7691 14.2684C11.7592 14.5466 11.7592 14.8259 11.7691 15.1047C11.7743 15.2498 11.7127 15.2759 11.5855 15.2748C11.0608 15.2691 10.5361 15.2717 10.0115 15.2712V15.2707Z" fill="#FE9000"/>
</g>
<defs>
<clipPath id="clip0_329_4585">
<rect width="20" height="20" fill="white"/>
</clipPath>
</defs>
</svg>
