<svg width="17" height="16" viewBox="0 0 17 16" fill="none" xmlns="http://www.w3.org/2000/svg">
<path d="M0.166626 1.33333C0.166626 1.11232 0.254423 0.900358 0.410704 0.744078C0.566984 0.587797 0.778946 0.5 0.999959 0.5H16C16.221 0.5 16.4329 0.587797 16.5892 0.744078C16.7455 0.900358 16.8333 1.11232 16.8333 1.33333V5.91667C16.2808 5.91667 15.7509 6.13616 15.3602 6.52686C14.9695 6.91756 14.75 7.44747 14.75 8C14.75 8.55253 14.9695 9.08244 15.3602 9.47314C15.7509 9.86384 16.2808 10.0833 16.8333 10.0833V14.6667C16.8333 14.8877 16.7455 15.0996 16.5892 15.2559C16.4329 15.4122 16.221 15.5 16 15.5H0.999959C0.778946 15.5 0.566984 15.4122 0.410704 15.2559C0.254423 15.0996 0.166626 14.8877 0.166626 14.6667V1.33333ZM5.23746 13.8333C5.32335 13.5892 5.48292 13.3777 5.69413 13.2281C5.90535 13.0785 6.1578 12.9981 6.41663 12.9981C6.67546 12.9981 6.9279 13.0785 7.13912 13.2281C7.35033 13.3777 7.5099 13.5892 7.59579 13.8333H15.1666V11.36C14.5406 11.0498 14.0137 10.5708 13.6454 9.97712C13.277 9.38344 13.0818 8.69867 13.0818 8C13.0818 7.30133 13.277 6.61656 13.6454 6.02288C14.0137 5.42921 14.5406 4.95025 15.1666 4.64V2.16667H7.59579C7.5099 2.41083 7.35033 2.62231 7.13912 2.77191C6.9279 2.92151 6.67546 3.00186 6.41663 3.00186C6.1578 3.00186 5.90535 2.92151 5.69413 2.77191C5.48292 2.62231 5.32335 2.41083 5.23746 2.16667H1.83329V13.8333H5.23746ZM6.41663 7.16667C6.08511 7.16667 5.76716 7.03497 5.53274 6.80055C5.29832 6.56613 5.16663 6.24819 5.16663 5.91667C5.16663 5.58515 5.29832 5.2672 5.53274 5.03278C5.76716 4.79836 6.08511 4.66667 6.41663 4.66667C6.74815 4.66667 7.06609 4.79836 7.30051 5.03278C7.53493 5.2672 7.66663 5.58515 7.66663 5.91667C7.66663 6.24819 7.53493 6.56613 7.30051 6.80055C7.06609 7.03497 6.74815 7.16667 6.41663 7.16667ZM6.41663 11.3333C6.08511 11.3333 5.76716 11.2016 5.53274 10.9672C5.29832 10.7328 5.16663 10.4149 5.16663 10.0833C5.16663 9.75181 5.29832 9.43387 5.53274 9.19945C5.76716 8.96503 6.08511 8.83333 6.41663 8.83333C6.74815 8.83333 7.06609 8.96503 7.30051 9.19945C7.53493 9.43387 7.66663 9.75181 7.66663 10.0833C7.66663 10.4149 7.53493 10.7328 7.30051 10.9672C7.06609 11.2016 6.74815 11.3333 6.41663 11.3333Z" fill="#666666"/>
</svg>
