<svg width="30" height="30" viewBox="0 0 30 30" fill="none" xmlns="http://www.w3.org/2000/svg">
<g id="Frame" clip-path="url(#clip0_163_1004)">
<path id="Vector" d="M11.3788 2.5H18.6213C19.1139 2.49994 19.6017 2.59695 20.0568 2.78548C20.5119 2.974 20.9255 3.25036 21.2737 3.59875L26.4 8.72375C26.7491 9.07238 27.0259 9.48646 27.2147 9.94227C27.4034 10.3981 27.5004 10.8867 27.5 11.38V18.6225C27.5001 19.1151 27.4031 19.6029 27.2145 20.0581C27.026 20.5132 26.7496 20.9267 26.4013 21.275L21.2762 26.4013C20.9279 26.75 20.5142 27.0267 20.0589 27.2154C19.6035 27.4042 19.1154 27.5013 18.6225 27.5012H11.3788C10.886 27.5011 10.3982 27.4039 9.94304 27.2152C9.48791 27.0265 9.07444 26.7499 8.72625 26.4013L3.6 21.2763C3.25108 20.9278 2.97433 20.5139 2.78557 20.0583C2.59682 19.6027 2.49978 19.1144 2.5 18.6213V11.3788C2.49994 10.8861 2.59695 10.3983 2.78547 9.94318C2.974 9.48806 3.25036 9.07454 3.59875 8.72625L8.72375 3.6C9.07238 3.25094 9.48646 2.97409 9.94227 2.78533C10.3981 2.59658 10.8867 2.49961 11.38 2.5H11.3788Z" stroke="#40B5E8" stroke-width="3" stroke-linecap="round" stroke-linejoin="round"/>
<path id="Vector_2" d="M15 10V15" stroke="#40B5E8" stroke-width="3" stroke-linecap="round" stroke-linejoin="round"/>
<path id="Vector_3" d="M15 20H15.0125" stroke="#40B5E8" stroke-width="3" stroke-linecap="round" stroke-linejoin="round"/>
</g>
<defs>
<clipPath id="clip0_163_1004">
<rect width="30" height="30" fill="white"/>
</clipPath>
</defs>
</svg>
