<svg width="20" height="20" viewBox="0 0 20 20" fill="none" xmlns="http://www.w3.org/2000/svg">
<path fill-rule="evenodd" clip-rule="evenodd" d="M10.001 13.7843C9.65598 13.7843 9.37598 13.5043 9.37598 13.1593V3.12511C9.37598 2.78011 9.65598 2.50011 10.001 2.50011C10.346 2.50011 10.626 2.78011 10.626 3.12511V13.1593C10.626 13.5043 10.346 13.7843 10.001 13.7843Z" fill="#40B5E8" />
<path fill-rule="evenodd" clip-rule="evenodd" d="M10.0008 13.7843C9.83496 13.7843 9.67496 13.7185 9.55829 13.6002L7.12827 11.161C6.88494 10.916 6.88577 10.5202 7.12994 10.2768C7.37494 10.0335 7.76994 10.0335 8.01327 10.2785L10.0008 12.2743L11.9883 10.2785C12.2316 10.0335 12.6266 10.0335 12.8716 10.2768C13.1158 10.5202 13.1166 10.916 12.8733 11.161L10.4433 13.6002C10.3266 13.7185 10.1666 13.7843 10.0008 13.7843Z" fill="#40B5E8"/>
<mask id="mask0_889_14201" style="mask-type:alpha" maskUnits="userSpaceOnUse" x="1" y="6" width="18" height="12">
<path fill-rule="evenodd" clip-rule="evenodd" d="M1.66699 6.44389H18.3335V17.8973H1.66699V6.44389Z" fill="white"/>
</mask>
<g mask="url(#mask0_889_14201)">
<path fill-rule="evenodd" clip-rule="evenodd" d="M14.6461 17.8973H5.36283C3.32533 17.8973 1.66699 16.2398 1.66699 14.2014V10.1306C1.66699 8.09723 3.32116 6.44389 5.35533 6.44389H6.13949C6.48449 6.44389 6.76449 6.72389 6.76449 7.06889C6.76449 7.41389 6.48449 7.69389 6.13949 7.69389H5.35533C4.01033 7.69389 2.91699 8.78642 2.91699 10.1306V14.2014C2.91699 15.5506 4.01366 16.6473 5.36283 16.6473H14.6461C15.9895 16.6473 17.0836 15.5531 17.0836 14.2098V10.1398C17.0836 8.79059 15.9861 7.69389 14.6386 7.69389H13.862C13.517 7.69389 13.237 7.41389 13.237 7.06889C13.237 6.72389 13.517 6.44389 13.862 6.44389H14.6386C16.6761 6.44389 18.3336 8.10223 18.3336 10.1398V14.2098C18.3336 16.2431 16.6786 17.8973 14.6461 17.8973Z" fill="#40B5E8"/>
</g>
</svg>
