<svg xmlns="http://www.w3.org/2000/svg" viewBox="0 0 257.42 117.84"><defs><style>.cls-1{fill:#1f2937;stroke:#f2f6f9;stroke-miterlimit:10;stroke-width:5px;}</style></defs><g id="Layer_2" data-name="Layer 2"><g id="Layer_1-2" data-name="Layer 1"><path class="cls-1" d="M92.5,77.21a34.64,34.64,0,0,1-5,18.05Q82.42,103.71,72,109t-26.81,5.26a94.11,94.11,0,0,1-22.48-2.78,67.24,67.24,0,0,1-19.53-7.92l11-23.08a55.51,55.51,0,0,0,14.49,6.65,54.45,54.45,0,0,0,15.57,2.34q7.76,0,12.56-3A9.48,9.48,0,0,0,61.65,78a9.58,9.58,0,0,0-1.86-5.82c-1.23-1.7-3.35-3-6.35-3.88S46.15,67,40.58,67H11.12l5.43-63.4H85.68V27.29H41.94L40.62,43.1h7.24q16.13,0,25.89,4.58T88,59.92A33.55,33.55,0,0,1,92.5,77.21Z"/><path class="cls-1" d="M125.45,115.34a44.52,44.52,0,0,1-41.7-25.88q-6.19-12.57-6.2-30.54t6.2-30.54a45.69,45.69,0,0,1,17-19.21A46,46,0,0,1,125.45,2.5,44.53,44.53,0,0,1,167,28.38q6.19,12.56,6.2,30.54T167,89.46a44.53,44.53,0,0,1-41.54,25.88Zm0-25.11a13.42,13.42,0,0,0,8.75-3.1c2.54-2.07,4.52-5.4,6-10s2.17-10.67,2.17-18.21-.72-13.74-2.17-18.29-3.43-7.85-6-9.92a13.91,13.91,0,0,0-17.51,0q-3.8,3.1-6,9.92T108.4,58.92q0,11.31,2.24,18.21t6,10A13.43,13.43,0,0,0,125.45,90.23Z"/><path class="cls-1" d="M207.18,115.34a44.52,44.52,0,0,1-41.69-25.88q-6.21-12.57-6.2-30.54t6.2-30.54a45.69,45.69,0,0,1,17-19.21,48.87,48.87,0,0,1,49.29,0,45.69,45.69,0,0,1,17,19.21q6.21,12.56,6.2,30.54t-6.2,30.54a44.51,44.51,0,0,1-41.54,25.88Zm0-25.11a13.43,13.43,0,0,0,8.76-3.1q3.8-3.1,6-10t2.17-18.21q0-11.47-2.17-18.29t-6-9.92a13.91,13.91,0,0,0-17.51,0q-3.81,3.1-6.05,9.92t-2.25,18.29q0,11.31,2.25,18.21t6.05,10A13.42,13.42,0,0,0,207.18,90.23Z"/></g></g></svg>