<svg xmlns="http://www.w3.org/2000/svg" viewBox="0 0 262.7 117.84"><defs><style>.cls-1{fill:#1f2937;stroke:#f2f6f9;stroke-miterlimit:10;stroke-width:5px;}</style></defs><g id="Layer_2" data-name="Layer 2"><g id="Layer_1-2" data-name="Layer 1"><polygon class="cls-1" points="105.88 68.06 105.88 92.4 89.76 92.4 89.76 113.17 59.85 113.17 59.85 92.4 2.5 92.4 2.5 72.4 51.17 4.67 82.94 4.67 38.7 68.06 60.78 68.06 60.78 49.62 89.76 49.62 89.76 68.06 105.88 68.06"/><path class="cls-1" d="M139.64,115.34a44.52,44.52,0,0,1-41.7-25.88q-6.19-12.57-6.2-30.54t6.2-30.54a45.69,45.69,0,0,1,17-19.21A46,46,0,0,1,139.64,2.5a44.53,44.53,0,0,1,41.54,25.88q6.19,12.56,6.2,30.54t-6.2,30.54a44.53,44.53,0,0,1-41.54,25.88Zm0-25.11a13.42,13.42,0,0,0,8.75-3.1c2.54-2.07,4.52-5.4,6-10s2.17-10.67,2.17-18.21-.72-13.74-2.17-18.29-3.43-7.85-6-9.92a13.91,13.91,0,0,0-17.51,0q-3.8,3.1-6,9.92t-2.24,18.29q0,11.31,2.24,18.21t6,10A13.43,13.43,0,0,0,139.64,90.23Z"/><path class="cls-1" d="M260.2,78.13a33,33,0,0,1-5,17.52q-5,8.22-15.42,13.42t-26.82,5.18a93.75,93.75,0,0,1-22.55-2.78,69.43,69.43,0,0,1-19.61-7.92l11.16-23.08a52.67,52.67,0,0,0,14.49,6.65A55.62,55.62,0,0,0,212,89.46q7.9,0,12.56-3a9.37,9.37,0,0,0,4.65-8.37,9,9,0,0,0-3.88-7.66q-3.87-2.88-12.71-2.88H199.75V48.23l19.37-20.94H176.34V3.58h78.43V22.8L232.41,47c7.11,1.38,12.88,4,17.32,7.87Q260.2,63.87,260.2,78.13Z"/></g></g></svg>