<svg width="20" height="20" viewBox="0 0 20 20" fill="none" xmlns="http://www.w3.org/2000/svg">
<path fill-rule="evenodd" clip-rule="evenodd" d="M9.99938 8.03445C8.89105 8.03445 7.99023 8.93615 7.99023 10.0445C7.99023 11.152 8.89105 12.0528 9.99938 12.0528C11.1077 12.0528 12.0094 11.152 12.0094 10.0445C12.0094 8.93615 11.1077 8.03445 9.99938 8.03445ZM9.99938 13.3028C8.2019 13.3028 6.74023 11.8412 6.74023 10.0445C6.74023 8.24695 8.2019 6.78445 9.99938 6.78445C11.7969 6.78445 13.2594 8.24695 13.2594 10.0445C13.2594 11.8412 11.7969 13.3028 9.99938 13.3028Z" fill="#666666"/>
<mask id="mask0_889_14191" style="mask-type:alpha" maskUnits="userSpaceOnUse" x="1" y="3" width="18" height="14">
<path fill-rule="evenodd" clip-rule="evenodd" d="M1.66699 3.33353H18.3335V16.7543H1.66699V3.33353Z" fill="white"/>
</mask>
<g mask="url(#mask0_889_14191)">
<path fill-rule="evenodd" clip-rule="evenodd" d="M2.97512 10.0437C4.52512 13.4678 7.13595 15.5037 10.0001 15.5045C12.8643 15.5037 15.4751 13.4678 17.0251 10.0437C15.4751 6.62034 12.8643 4.58451 10.0001 4.58368C7.13678 4.58451 4.52512 6.62034 2.97512 10.0437ZM10.0018 16.7545H9.99846H9.99763C6.55095 16.752 3.45595 14.3362 1.71762 10.2903C1.65012 10.1328 1.65012 9.9545 1.71762 9.797C3.45595 5.75201 6.55178 3.33618 9.99763 3.33368C9.99929 3.33285 9.99929 3.33285 10.0001 3.33368C10.0018 3.33285 10.0018 3.33285 10.0026 3.33368C13.4493 3.33618 16.5443 5.75201 18.2826 9.797C18.351 9.9545 18.351 10.1328 18.2826 10.2903C16.5451 14.3362 13.4493 16.752 10.0026 16.7545H10.0018Z" fill="#666666"/>
</g>
</svg>
