<svg width="17" height="20" viewBox="0 0 17 20" fill="none" xmlns="http://www.w3.org/2000/svg">
<path d="M16.7821 9.37232C16.1012 8.44774 15.4059 7.53319 14.7169 6.61424C14.5634 6.40941 14.4112 6.20332 14.2583 5.99723C14.3103 5.92582 14.351 5.86882 14.393 5.81307C15.176 4.76884 15.964 3.729 16.737 2.67789C16.8573 2.51439 16.9594 2.30768 16.9851 2.11036C17.0684 1.4639 16.6024 0.99535 15.9089 0.99535C12.0314 0.994098 8.15397 0.99535 4.2765 0.99535H4.01529C3.98835 0.873827 3.97457 0.780492 3.94701 0.691542C3.82047 0.282497 3.44463 0.00562355 3.01491 -1.41315e-05C2.57016 -0.00627823 2.17552 0.260572 2.05212 0.678387C2.00388 0.839374 1.99386 1.01665 1.99386 1.18703C1.99073 6.68127 1.99136 12.1761 1.99136 17.671V18.0105C1.61175 18.0105 1.26848 17.9992 0.92646 18.0136C0.399024 18.0356 7.37662e-07 18.4703 7.37662e-07 19.0027C-0.000625672 19.5339 0.397771 19.9862 0.924581 19.9912C2.30832 20.005 3.69206 19.9994 5.07517 19.9931C5.37459 19.9918 5.61576 19.8434 5.79241 19.6053C6.02606 19.2909 6.06866 18.942 5.90391 18.5881C5.73541 18.226 5.44162 18.0218 5.03571 18.0111C4.69494 18.0024 4.35355 18.0093 4.00965 18.0093V10.996H4.32097C8.15209 10.996 11.9826 10.996 15.8131 10.9941C15.9684 10.9941 16.13 10.996 16.2772 10.9553C16.9669 10.7642 17.2238 9.97117 16.7821 9.37232ZM4.00338 8.98771V3.01928H13.9739C13.9132 3.10698 13.8681 3.17651 13.8186 3.24291C13.3037 3.93008 12.7869 4.61662 12.2726 5.30505C11.9049 5.79678 11.9062 6.19956 12.277 6.69568C12.7957 7.39036 13.3175 8.08255 13.8368 8.77661C13.8825 8.83674 13.9232 8.90001 13.984 8.98771H4.00338Z" fill="#666666"/>
</svg>
