<svg width="20" height="18" viewBox="0 0 20 18" fill="none" xmlns="http://www.w3.org/2000/svg">
<path d="M14.1252 0.75C16.91 0.75 19.1668 3.04167 19.1668 6.25C19.1668 12.6667 12.2918 16.3333 10.0002 17.7083C7.7085 16.3333 0.833496 12.6667 0.833496 6.25C0.833496 3.04167 3.12516 0.75 5.87516 0.75C7.58016 0.75 9.0835 1.66667 10.0002 2.58333C10.9168 1.66667 12.4202 0.75 14.1252 0.75ZM10.8563 15.0537C11.6639 14.544 12.3927 14.0371 13.0747 13.4944C15.8072 11.3219 17.3335 8.94775 17.3335 6.25C17.3335 4.08667 15.9246 2.58333 14.1252 2.58333C13.1388 2.58333 12.0718 3.10583 11.2963 3.8795L10.0002 5.17567L8.704 3.8795C7.9285 3.10583 6.8615 2.58333 5.87516 2.58333C4.09683 2.58333 2.66683 4.10133 2.66683 6.25C2.66683 8.94867 4.194 11.3219 6.92475 13.4944C7.60766 14.0371 8.33641 14.544 9.144 15.0528C9.41808 15.226 9.68941 15.3919 10.0002 15.5771C10.3109 15.3919 10.5822 15.226 10.8563 15.0537Z" fill="#CCCCCC"/>
</svg>
