<svg width="110" height="14" viewBox="0 0 148 20" fill="none" xmlns="http://www.w3.org/2000/svg">
<path d="M34.3815 19.8958C33.854 19.896 33.3333 19.7761 32.859 19.5452C32.3847 19.3143 31.9692 18.9784 31.6439 18.5631L24.2652 9.12006C24.1862 9.01906 24.0777 8.94532 23.9547 8.90915C23.8318 8.8729 23.7005 8.87607 23.5795 8.91813C23.4585 8.9602 23.3536 9.03903 23.2795 9.14371C23.2055 9.24832 23.1661 9.37349 23.1667 9.50167V17.3107C23.1665 17.996 22.8942 18.6533 22.4096 19.1379C21.925 19.6225 21.2677 19.8948 20.5824 19.895C19.897 19.8948 19.2398 19.6225 18.7552 19.1379C18.2706 18.6533 17.9983 17.996 17.998 17.3107V3.48356C17.998 3.02716 18.0878 2.5752 18.2624 2.1535C18.437 1.73182 18.6929 1.34864 19.0156 1.02588C19.3383 0.703118 19.7214 0.447084 20.1431 0.272403C20.5647 0.0977207 21.0167 0.00781261 21.4731 0.00781261C22.0006 0.00781872 22.5212 0.12796 22.9955 0.359123C23.4696 0.590287 23.8849 0.926405 24.2099 1.34198L31.5887 10.7717C31.6673 10.8723 31.7754 10.9459 31.8977 10.9822C32.0201 11.0186 32.1508 11.016 32.2715 10.9746C32.3924 10.9333 32.4973 10.8554 32.5717 10.7517C32.6462 10.648 32.6865 10.5237 32.6871 10.396V2.59289C32.6869 2.25342 32.7536 1.91724 32.8834 1.60356C33.0132 1.28989 33.2035 1.00487 33.4435 0.764795C33.6836 0.524718 33.9685 0.334294 34.2822 0.204407C34.5958 0.0745198 34.932 0.0077158 35.2714 0.00781261C35.9569 0.00781261 36.6142 0.280091 37.0988 0.764751C37.5835 1.24941 37.8558 1.90675 37.8558 2.59216V16.42C37.8558 17.3416 37.4896 18.2255 36.838 18.8772C36.1863 19.5289 35.3024 19.895 34.3808 19.895L34.3815 19.8958Z" fill="#2253FF"/>
<path d="M96.3774 16.4137L91.1992 2.64998C90.9067 1.8756 90.3859 1.20836 89.7052 0.736552C89.0252 0.264747 88.2178 0.010631 87.3897 0.00783581C86.5617 0.00504068 85.7528 0.253698 85.0691 0.720897C84.3862 1.1881 83.8602 1.85181 83.5626 2.6242L78.2583 16.4263C78.0255 17.055 78.0498 17.75 78.3246 18.3614C78.5994 18.9729 79.1033 19.4518 79.728 19.6951C80.3528 19.9384 81.0482 19.9265 81.6641 19.6621C82.2807 19.3976 82.7677 18.9017 83.0218 18.2813L83.5132 17.034C83.5839 16.8533 83.7077 16.6981 83.8683 16.5888C84.0289 16.4794 84.2182 16.421 84.4127 16.4211H90.2142C90.4117 16.4204 90.6054 16.4809 90.7667 16.5944C90.9288 16.7078 91.0518 16.8686 91.1189 17.0547L91.5484 18.215C91.7304 18.7096 92.0604 19.1365 92.4921 19.4382C92.9245 19.7398 93.4388 19.9017 93.9662 19.902C94.2771 19.9026 94.5858 19.8454 94.8761 19.7333C95.5148 19.4917 96.0319 19.0065 96.3134 18.3841C96.5948 17.7617 96.6176 17.0531 96.3774 16.4137ZM88.9147 12.4775H85.7528C85.7027 12.4787 85.6533 12.4717 85.6054 12.4569C85.4993 12.4191 85.4131 12.341 85.3638 12.2397C85.3152 12.1384 85.3085 12.0219 85.3446 11.9154L86.9344 7.31477C86.9617 7.22871 87.0155 7.15358 87.0884 7.10026C87.1613 7.04694 87.249 7.0182 87.3396 7.0182C87.4302 7.0182 87.5179 7.04694 87.5908 7.10026C87.6638 7.15358 87.7175 7.22871 87.7448 7.31477L89.314 11.9154C89.3302 11.9596 89.339 12.0062 89.3398 12.0532C89.339 12.1656 89.2933 12.2731 89.2138 12.3525C89.135 12.4319 89.0274 12.4768 88.9147 12.4775Z" fill="#2253FF"/>
<path d="M143.834 12.8343C143.787 12.7662 143.746 12.6942 143.712 12.6191C143.614 12.3833 143.612 12.118 143.709 11.8814C143.806 11.6449 143.992 11.4561 144.227 11.3564C144.803 11.1217 145.329 10.7783 145.774 10.345C146.818 9.29685 147.341 7.8927 147.341 6.13251C147.341 4.59428 146.885 3.25938 145.976 2.11971C144.851 0.709174 143.115 0.00390625 140.767 0.00390625H135.456C134.734 0.0054671 134.042 0.293337 133.533 0.804353C133.023 1.31536 132.736 2.00779 132.736 2.7297V17.309C132.736 17.6483 132.801 17.9845 132.931 18.2982C133.06 18.6119 133.251 18.8969 133.491 19.1367C133.852 19.4988 134.313 19.7455 134.815 19.8456C135.316 19.9456 135.836 19.8946 136.309 19.6988C136.782 19.5032 137.185 19.1716 137.47 18.7461C137.753 18.3207 137.905 17.8205 137.904 17.309V15.5483C137.904 14.5906 139.162 14.2222 139.683 15.0267L142.075 18.7485C142.302 19.0999 142.613 19.3889 142.98 19.5889C143.347 19.7889 143.759 19.8936 144.177 19.8933C146.252 19.8933 147.422 17.5211 146.166 15.8702L143.834 12.8343ZM141.226 8.22842C140.75 8.6837 139.963 8.91355 138.875 8.91355H138.445C138.375 8.91347 138.305 8.89948 138.24 8.87237C138.175 8.84533 138.116 8.80562 138.067 8.75575C138.018 8.7058 137.979 8.64657 137.952 8.58152C137.926 8.51647 137.912 8.44677 137.913 8.37649V4.48157C137.913 4.41169 137.926 4.34248 137.954 4.27791C137.98 4.21333 138.019 4.15466 138.069 4.10525C138.118 4.05583 138.177 4.01666 138.242 3.98996C138.306 3.96326 138.375 3.94958 138.445 3.94967H138.869C139.947 3.94967 140.734 4.1751 141.219 4.6348C141.469 4.86032 141.668 5.1367 141.802 5.44535C141.936 5.754 142.003 6.08778 141.997 6.42425C142.003 6.76229 141.937 7.09777 141.804 7.40869C141.671 7.71958 141.474 7.99893 141.226 8.22842Z" fill="#2253FF"/>
<path d="M14.0636 16.0335L9.65961 10.411C9.55544 10.2784 9.49886 10.1145 9.49886 9.94582C9.49886 9.77712 9.55544 9.61327 9.65961 9.48059L14.0548 3.86989C15.2777 2.30882 14.1653 0.0213644 12.1821 0.0213644H12.1784C11.8192 0.0212321 11.4646 0.102811 11.1416 0.259927C10.8185 0.417042 10.5355 0.645579 10.3138 0.928242L5.65049 6.88594C5.61428 6.93245 5.56444 6.96649 5.50794 6.9833C5.45145 7.00011 5.39111 6.99885 5.33536 6.9797C5.27961 6.96055 5.23124 6.92446 5.197 6.87648C5.16276 6.8285 5.14436 6.77102 5.14438 6.71208V2.47826C5.14438 1.82098 4.88327 1.19063 4.41851 0.725866C3.95374 0.261102 3.32339 1.09573e-07 2.66612 1.09573e-07H2.47826C2.1529 -9.66499e-05 1.83072 0.0638905 1.5301 0.188309C1.22947 0.312726 0.956295 0.495138 0.72617 0.725129C0.496043 0.955117 0.313469 1.22818 0.188872 1.52873C0.0642756 1.82929 9.68399e-05 2.15143 1.09573e-07 2.47679V17.4178C-9.66499e-05 17.7431 0.0638905 18.0654 0.188309 18.3659C0.312726 18.6666 0.495137 18.9398 0.725128 19.1699C0.955117 19.4 1.22818 19.5826 1.52873 19.7072C1.82928 19.8318 2.15143 19.896 2.47678 19.8961H2.66612C3.32339 19.8961 3.95374 19.635 4.41851 19.1702C4.88327 18.7054 5.14438 18.0751 5.14438 17.4178V13.1737C5.14449 13.1148 5.16293 13.0574 5.19711 13.0095C5.2313 12.9616 5.27954 12.9256 5.33516 12.9063C5.39078 12.8869 5.45101 12.8855 5.50751 12.902C5.56401 12.9185 5.61398 12.9521 5.65049 12.9983L10.3234 18.9656C10.5453 19.2485 10.8284 19.4774 11.1515 19.635C11.4745 19.7928 11.8292 19.8752 12.1887 19.8762C14.1719 19.8784 15.2873 17.5946 14.0636 16.0335Z" fill="#2253FF"/>
<path d="M107.172 4.30056H105.625C105.453 4.30056 105.289 4.36871 105.168 4.49001C105.046 4.61132 104.978 4.77584 104.978 4.94739V17.7925C104.978 18.0686 104.924 18.342 104.818 18.5971C104.713 18.8523 104.558 19.0842 104.363 19.2795C104.168 19.4748 103.936 19.6297 103.681 19.7355C103.426 19.8412 103.153 19.8957 102.876 19.8958H101.912C101.354 19.8958 100.82 19.6742 100.425 19.2797C100.031 18.8853 99.8088 18.3503 99.8088 17.7925V4.94739C99.8088 4.77584 99.7403 4.61132 99.6195 4.49001C99.4979 4.36871 99.3337 4.30056 99.162 4.30056H97.71C97.4337 4.30066 97.1604 4.24637 96.9055 4.14078C96.6506 4.03521 96.4185 3.8804 96.2233 3.68522C96.0281 3.49004 95.8734 3.2583 95.7673 3.00325C95.6619 2.74821 95.6074 2.47483 95.6074 2.19876V2.11036C95.6074 1.55273 95.8292 1.01793 96.2233 0.623633C96.6174 0.22933 97.1523 0.0078125 97.71 0.0078125H107.172C107.73 0.0078125 108.265 0.22933 108.659 0.623633C109.053 1.01793 109.275 1.55273 109.275 2.11036V2.19802C109.275 2.47413 109.22 2.74753 109.115 3.00263C109.009 3.25772 108.854 3.4895 108.659 3.68474C108.464 3.87998 108.232 4.03485 107.977 4.14052C107.722 4.24618 107.448 4.30056 107.172 4.30056Z" fill="#2253FF"/>
<path d="M79.3448 3.57123L73.049 18.3421C72.8522 18.8042 72.5237 19.1983 72.1045 19.475C71.6853 19.7516 71.1938 19.8988 70.6916 19.898H70.0654C69.5618 19.8975 69.0695 19.7485 68.6502 19.4697C68.2309 19.1908 67.9031 18.7945 67.7079 18.3303L61.5049 3.55944C61.3412 3.17013 61.2762 2.74633 61.3161 2.32585C61.3559 1.90536 61.4992 1.50127 61.7331 1.14961C61.9671 0.797947 62.2843 0.509646 62.6567 0.31042C63.0292 0.111193 63.4452 0.00723462 63.8675 0.00781492H63.897C64.4104 0.0083063 64.9118 0.163102 65.3361 0.452112C65.7604 0.741125 66.0881 1.151 66.2765 1.62855L70.1361 11.3641C70.1597 11.4229 70.2004 11.4733 70.2529 11.5088C70.3054 11.5443 70.3673 11.5633 70.4308 11.5633C70.4941 11.5633 70.5561 11.5443 70.6086 11.5088C70.6611 11.4733 70.7018 11.4229 70.7255 11.3641L74.6138 1.61898C74.8031 1.14397 75.1302 0.736602 75.5538 0.449423C75.9767 0.162241 76.4761 0.0084235 76.9874 0.00781492C77.411 0.00744495 77.8272 0.112077 78.2008 0.312343C78.5735 0.512607 78.891 0.802256 79.1246 1.15534C79.3581 1.50843 79.501 1.91394 79.5393 2.33556C79.5776 2.75718 79.5106 3.18174 79.3448 3.57123Z" fill="#2253FF"/>
<path d="M49.8928 15.6095L44.5149 10.2316C44.4407 10.1571 44.399 10.0561 44.399 9.95094C44.399 9.84574 44.4407 9.74481 44.5149 9.67026L49.8928 4.29235C49.9484 4.23746 50.019 4.20023 50.0957 4.18532C50.1724 4.17041 50.2517 4.1785 50.3239 4.20857C50.396 4.23865 50.4576 4.28935 50.501 4.35433C50.5443 4.4193 50.5676 4.49564 50.5676 4.57377V6.01623C50.5679 6.14721 50.62 6.27275 50.7127 6.36529C50.8054 6.45784 50.931 6.50982 51.062 6.50982H59.3064C59.3731 6.51081 59.439 6.49496 59.498 6.46375C59.557 6.43253 59.6072 6.38695 59.6438 6.33122C59.6805 6.2755 59.7026 6.21141 59.708 6.1449C59.7135 6.07839 59.702 6.01158 59.6747 5.95066C58.9279 4.25381 57.7217 2.79949 56.192 1.75184C54.6625 0.704201 52.8706 0.10494 51.0185 0.0217012C45.1801 -0.238354 40.3503 4.61797 40.6435 10.4578C40.7607 12.6915 41.6274 14.8206 43.1037 16.5011C44.58 18.1815 46.5797 19.3152 48.7797 19.7191C50.9798 20.1229 53.2518 19.7734 55.2287 18.7267C57.2055 17.6802 58.7719 15.9978 59.6747 13.9512C59.7012 13.8905 59.7121 13.8241 59.7062 13.7582C59.7005 13.6922 59.6783 13.6288 59.6416 13.5736C59.605 13.5184 59.5551 13.4732 59.4965 13.4423C59.438 13.4114 59.3726 13.3957 59.3064 13.3965H51.062C50.931 13.3965 50.8054 13.4485 50.7127 13.541C50.62 13.6336 50.5679 13.7591 50.5676 13.8901V15.3281C50.5668 15.4059 50.5432 15.4818 50.4998 15.5463C50.4562 15.6109 50.3948 15.6612 50.323 15.6912C50.2511 15.7211 50.1721 15.7294 50.0956 15.7149C50.0192 15.7004 49.9487 15.6638 49.8928 15.6095Z" fill="#2253FF"/>
<path d="M120.496 4.40444L125.874 9.78235C125.911 9.81933 125.94 9.86316 125.96 9.91142C125.98 9.95974 125.99 10.0115 125.99 10.0638C125.99 10.1161 125.98 10.1678 125.96 10.2161C125.94 10.2644 125.911 10.3083 125.874 10.3452L120.496 15.7231C120.44 15.7776 120.37 15.8145 120.293 15.8293C120.217 15.844 120.138 15.8359 120.066 15.806C119.994 15.7761 119.932 15.7256 119.889 15.661C119.845 15.5963 119.822 15.5204 119.821 15.4424V13.9955C119.821 13.8645 119.769 13.739 119.676 13.6465C119.583 13.554 119.458 13.5019 119.327 13.5019H111.076C111.009 13.5018 110.944 13.5183 110.886 13.5499C110.828 13.5814 110.778 13.6271 110.742 13.6827C110.706 13.7384 110.685 13.8021 110.679 13.8682C110.674 13.9342 110.685 14.0006 110.713 14.0611C111.459 15.7574 112.665 17.2114 114.193 18.259C115.723 19.3065 117.514 19.9061 119.365 19.9901C125.204 20.2494 130.032 15.3938 129.744 9.55618C129.628 7.3214 128.762 5.19095 127.285 3.50924C125.81 1.82753 123.809 0.692844 121.608 0.288619C119.407 -0.115606 117.134 0.234252 115.156 1.28164C113.179 2.32902 111.613 4.01272 110.71 6.06054C110.668 6.15718 110.667 6.26642 110.706 6.36432C110.744 6.46221 110.82 6.5408 110.917 6.58286C110.967 6.60418 111.021 6.6152 111.076 6.61527H119.321C119.452 6.61527 119.578 6.56322 119.671 6.47053C119.764 6.37786 119.816 6.25213 119.816 6.12095V4.68586C119.816 4.60714 119.839 4.53012 119.882 4.46458C119.926 4.39904 119.988 4.34795 120.061 4.31779C120.134 4.28763 120.214 4.27977 120.291 4.29519C120.368 4.31063 120.439 4.34865 120.494 4.40444H120.496Z" fill="#FF5722"/>
</svg>
