<svg width="16" height="18" viewBox="0 0 16 18" fill="none" xmlns="http://www.w3.org/2000/svg">
<path d="M13.8333 7.33333H14.6667C14.8877 7.33333 15.0996 7.42113 15.2559 7.57741C15.4122 7.73369 15.5 7.94565 15.5 8.16667V16.5C15.5 16.721 15.4122 16.933 15.2559 17.0893C15.0996 17.2455 14.8877 17.3333 14.6667 17.3333H1.33333C1.11232 17.3333 0.900358 17.2455 0.744078 17.0893C0.587797 16.933 0.5 16.721 0.5 16.5V8.16667C0.5 7.94565 0.587797 7.73369 0.744078 7.57741C0.900358 7.42113 1.11232 7.33333 1.33333 7.33333H2.16667V6.5C2.16667 5.73396 2.31755 4.97541 2.6107 4.26768C2.90386 3.55995 3.33354 2.91689 3.87521 2.37521C4.41689 1.83354 5.05995 1.40386 5.76768 1.1107C6.47541 0.817552 7.23396 0.666668 8 0.666668C8.76604 0.666668 9.52459 0.817552 10.2323 1.1107C10.9401 1.40386 11.5831 1.83354 12.1248 2.37521C12.6665 2.91689 13.0961 3.55995 13.3893 4.26768C13.6825 4.97541 13.8333 5.73396 13.8333 6.5V7.33333ZM2.16667 9V15.6667H13.8333V9H2.16667ZM7.16667 10.6667H8.83333V14H7.16667V10.6667ZM12.1667 7.33333V6.5C12.1667 5.39493 11.7277 4.33512 10.9463 3.55372C10.1649 2.77232 9.10507 2.33333 8 2.33333C6.89493 2.33333 5.83512 2.77232 5.05372 3.55372C4.27232 4.33512 3.83333 5.39493 3.83333 6.5V7.33333H12.1667Z" fill="#666666"/>
</svg>
