<svg width="106" height="42" viewBox="0 0 106 42" fill="none" xmlns="http://www.w3.org/2000/svg">
<path d="M4.60864 12.2068V26.2022H11.0446V17.8049H14.7222V26.2022H21.1579V12.2068H4.60864Z" fill="#6A6F73"/>
<path d="M27.0457 12.2068V26.3765H30.0771V17.4272L36.7954 26.3765H39.39V12.2068H36.3858V20.9627L29.8586 12.2068H27.0457ZM65.2528 12.2068L59.4358 26.3765H62.5491L63.8327 23.2276H69.3494L70.633 26.3765H73.801L68.0112 12.2068H65.2528ZM53.1817 12.8697V15.6042H51.9254V18.2282H53.1817V23.3105C53.1817 25.8008 54.45 26.5422 56.295 26.5422C57.3077 26.5422 58.0364 26.3168 58.6711 25.9345V23.4762C58.233 23.7204 57.725 23.8629 57.169 23.8629C56.4949 23.8629 56.2132 23.516 56.2132 22.8133V18.2282H58.6984V15.6042H56.2132V12.8697H53.1817ZM46.1356 15.4108C43.0376 15.4108 40.8647 17.9465 40.8647 21.018V21.0455C40.8647 24.3391 43.2385 26.625 46.436 26.625C48.3609 26.625 49.7875 25.8538 50.7784 24.6087L49.0578 23.0619C48.2233 23.8463 47.476 24.1668 46.4633 24.1668C45.112 24.1668 44.1693 23.453 43.8689 22.0676H51.27C51.2929 21.7869 51.2973 21.4798 51.2973 21.2389C51.2973 18.1873 49.6882 15.4108 46.1356 15.4108ZM80.9017 15.4108C79.333 15.4108 78.3039 16.1477 77.5699 17.151V15.6042H74.5657V29.5805H77.5699V24.9678C78.2843 25.8317 79.2947 26.5697 80.9017 26.5697C83.4241 26.5697 85.7356 24.6131 85.7356 21.018V20.9627C85.7356 17.3686 83.3847 15.4108 80.9017 15.4108ZM93.3003 15.4108C91.733 15.4108 90.7302 16.1477 89.996 17.151V15.6042H86.9646V29.5805H89.996V24.9678C90.7094 25.8317 91.6915 26.5697 93.3003 26.5697C95.8222 26.5697 98.1348 24.6131 98.1348 21.018V20.9627C98.1348 17.3686 95.7825 15.4108 93.3003 15.4108ZM97.8343 15.6042V15.9356H98.4897V18.0073H98.8445V15.9356H99.5275V15.6042H97.8343ZM99.9644 15.6042V18.0073H100.319V16.0185L101.029 18.0073H101.247L101.958 16.0185V18.0073H102.313V15.6042H101.766L101.139 17.4272L100.51 15.6042H99.9644ZM66.591 15.9356L68.4209 20.4932H64.734L66.591 15.9356ZM46.1356 17.8692C47.405 17.8692 48.197 18.7662 48.3751 20.134H43.8142C44.0524 18.7508 44.8826 17.8692 46.1356 17.8692ZM80.1097 18.0073C81.5179 18.0073 82.7042 19.1761 82.7041 20.9627V21.018C82.7041 22.8255 81.5179 23.9734 80.1097 23.9734C78.7016 23.9734 77.5425 22.8056 77.5425 21.018V20.9627C77.5425 19.1761 78.7016 18.0073 80.1097 18.0073ZM92.5361 18.0073C93.9464 18.0073 95.1308 19.1761 95.1308 20.9627V21.018C95.1308 22.8255 93.9464 23.9734 92.5361 23.9734C91.1289 23.9734 89.9415 22.8056 89.9415 21.018V20.9627C89.9415 19.1761 91.1289 18.0073 92.5361 18.0073Z" fill="#6A6F73"/>
</svg>
