<svg width="20" height="20" viewBox="0 0 20 20" fill="none" xmlns="http://www.w3.org/2000/svg">
<path d="M16.8074 4.29557L16.8075 4.29564C17.003 4.47555 17.1005 4.67762 17.1 4.94242M16.8074 4.29557L17 4.94222M16.8074 4.29557C16.2269 3.76238 15.6497 3.22845 15.0724 2.69441C14.5509 2.21192 14.0292 1.72933 13.5049 1.24712M16.8074 4.29557L13.5049 1.24712M17.1 4.94242L17 4.94222M17.1 4.94242C17.1 4.94239 17.1 4.94237 17.1 4.94234L17 4.94222M17.1 4.94242C17.0961 8.04403 17.0963 11.1459 17.0965 14.248C17.0966 14.9644 17.0966 15.6808 17.0966 16.3972C17.0966 16.911 16.9182 17.3397 16.5925 17.6394C16.2678 17.9383 15.8062 18.1 15.255 18.1H4.73976C4.18894 18.1 3.72797 17.9381 3.40362 17.6389C3.07841 17.339 2.90025 16.9098 2.9 16.3955L2.9 16.3954L2.9 2.64935C2.9 2.18441 3.01185 1.80643 3.25604 1.51518C3.49799 1.2266 3.85973 1.0353 4.33702 0.921179M17 4.94222C16.9961 8.04401 16.9963 11.1461 16.9965 14.2482C16.9966 14.9646 16.9966 15.6809 16.9966 16.3972C16.9966 17.3764 16.319 18 15.255 18H4.73976C3.67673 18 3.00048 17.376 3 16.3954V2.64935C3 1.75172 3.43087 1.23816 4.3688 1.01641M4.33702 0.921179L4.33318 0.923572C4.3329 0.92374 4.33277 0.923816 4.33276 0.923818C4.33275 0.923825 4.33349 0.923405 4.33474 0.922823C4.33661 0.921957 4.34025 0.920428 4.34533 0.919201L4.3688 1.01641M4.33702 0.921179L4.33907 0.919893C4.34198 0.918069 4.34662 0.915188 4.35198 0.91226L4.3744 0.9H4.39995H13.0129H13.0463L13.073 0.920011C13.1135 0.950465 13.1574 0.981494 13.2026 1.01345C13.3042 1.08534 13.4124 1.16191 13.5049 1.24712M4.33702 0.921179C4.33994 0.92048 4.34286 0.919785 4.34579 0.919092L4.3688 1.01641M4.3688 1.01641L13.5049 1.24712M12.2314 4.7699V4.76998C12.232 4.96356 12.2948 5.1288 12.4207 5.24494C12.5455 5.36011 12.7202 5.41583 12.9237 5.41608C13.5858 5.41703 14.248 5.41685 14.9101 5.41667C15.1749 5.4166 15.4397 5.41652 15.7045 5.41652H15.8202V5.50501V5.52665C15.8202 9.15431 15.8202 12.782 15.8197 16.4101C15.8197 16.5987 15.7729 16.7148 15.6949 16.7862C15.6149 16.8593 15.4823 16.9039 15.2703 16.9039H4.72154C4.51158 16.9039 4.38042 16.859 4.30121 16.7855C4.2236 16.7134 4.17692 16.596 4.17692 16.4056V2.59569C4.17692 2.40413 4.2234 2.28639 4.30062 2.21433C4.37934 2.14086 4.50986 2.09609 4.71963 2.09609H12.2309V2.67818C12.2309 2.87727 12.2309 3.07639 12.2308 3.27554C12.2306 3.77358 12.2304 4.27177 12.2314 4.7699ZM13.5179 4.21112V2.98979C13.7403 3.19546 13.9631 3.40164 14.186 3.60783L14.1878 3.60952L14.1884 3.61008C14.4051 3.81057 14.6217 4.01108 14.838 4.21112H13.5179Z" fill="#B80000" fill-opacity="0.4" stroke="#E39999" stroke-width="0.2"/>
<path d="M14.7915 12.7686C14.6578 12.0865 14.0807 11.6297 13.3398 11.623C12.9569 11.6199 12.5739 11.6195 12.1915 11.6244C12.0903 11.6257 12.0304 11.5991 11.9787 11.5148C11.5521 10.8234 11.1179 10.1364 10.6952 9.44326C10.6602 9.38605 10.6607 9.28094 10.6942 9.22328C10.8782 8.90663 11.0819 8.60062 11.2703 8.28662C11.5885 7.75621 11.5109 7.14019 11.0781 6.70025C10.5902 6.20486 9.76586 6.11838 9.16629 6.49979C8.56049 6.88563 8.35393 7.6307 8.699 8.23607C8.88544 8.56336 9.092 8.88135 9.29665 9.19933C9.35512 9.29025 9.36423 9.35899 9.30336 9.45523C8.87154 10.1373 8.44547 10.8225 8.02227 11.509C7.96715 11.5991 7.90293 11.6261 7.7951 11.6248C7.38819 11.6195 6.98129 11.6159 6.57487 11.6257C5.83967 11.6439 5.21326 12.2297 5.1893 12.9096C5.16725 13.5376 5.59188 14.0982 6.22261 14.2733C6.87681 14.4552 7.5545 14.2152 7.91252 13.6671C8.11046 13.3646 8.30217 13.0582 8.48477 12.7473C8.54564 12.6435 8.61753 12.6142 8.7383 12.616C9.15719 12.6227 9.57607 12.6187 9.99447 12.6187C10.4129 12.6187 10.8437 12.6227 11.2684 12.616C11.3848 12.6142 11.451 12.6448 11.508 12.7411C11.6921 13.0511 11.8833 13.358 12.0798 13.6613C12.4565 14.2419 13.196 14.48 13.8684 14.2432C14.5059 14.0183 14.9104 13.3726 14.7915 12.7686V12.7686ZM6.9741 13.1739C6.87058 13.3221 6.66929 13.3713 6.50058 13.307C6.34242 13.2462 6.23938 13.0706 6.27053 12.9149C6.30408 12.7468 6.45361 12.6253 6.6482 12.6209C6.86195 12.6156 7.07571 12.6196 7.32541 12.6196C7.19649 12.8249 7.09248 13.0036 6.9741 13.1739V13.1739ZM9.76586 7.33178C9.89814 7.23776 10.0999 7.2382 10.2322 7.33267C10.3808 7.43911 10.4325 7.61695 10.3434 7.77616C10.2427 7.95622 10.1268 8.12918 9.99831 8.3363C9.86938 8.1283 9.7534 7.95533 9.65275 7.77483C9.56361 7.61606 9.61633 7.43778 9.76586 7.33178ZM9.19792 11.6115C9.4668 11.1809 9.72416 10.7693 9.99879 10.3298C10.2729 10.7693 10.5303 11.1813 10.7987 11.6115H9.19792ZM13.5085 13.3003C13.3431 13.3717 13.1342 13.3291 13.0316 13.1846C12.9084 13.0112 12.8025 12.8271 12.6712 12.6196C12.9233 12.6196 13.1375 12.6156 13.3518 12.6209C13.5454 12.6258 13.6949 12.7499 13.7266 12.918C13.7548 13.0688 13.6599 13.2351 13.5085 13.3003V13.3003Z" fill="#B80000" fill-opacity="0.4"/>
</svg>
