<svg width="18" height="19" viewBox="0 0 18 19" fill="none" xmlns="http://www.w3.org/2000/svg">
<path d="M2.725 9.27383C2.725 5.70782 5.62404 2.80693 9.1875 2.80693C12.751 2.80693 15.65 5.70782 15.65 9.27383C15.65 12.8398 12.751 15.7407 9.1875 15.7407C5.62404 15.7407 2.725 12.8398 2.725 9.27383ZM1.4 9.27383C1.4 13.5708 4.89321 17.0665 9.1875 17.0665C13.4818 17.0665 16.975 13.5708 16.975 9.27383C16.975 4.97682 13.4818 1.48118 9.1875 1.48118C4.89321 1.48118 1.4 4.97682 1.4 9.27383Z" fill="#40B5E8" stroke="#40B5E8" stroke-width="0.2"/>
<path d="M7.02488 9.33649L7.02488 9.33645C7.0245 8.21751 7.10827 7.56732 7.20884 7.17995C7.25928 6.98569 7.31448 6.8554 7.36688 6.76442C7.42009 6.67205 7.46867 6.62345 7.49878 6.59333L7.49893 6.59318L7.49926 6.59285L7.49927 6.59285C7.7264 6.36773 8.02132 6.33773 8.27958 6.37205C8.53675 6.40623 8.77548 6.50627 8.911 6.56305L8.91169 6.56334L8.91181 6.56339L7.02488 9.33649ZM7.02488 9.33649C7.02563 10.3906 7.10678 11.0054 7.20596 11.3748C7.25572 11.5602 7.31054 11.6858 7.36345 11.7748C7.41705 11.865 7.46681 11.9143 7.49924 11.9464L7.02488 9.33649ZM8.34972 9.29382C8.35022 8.72897 8.37742 8.16498 8.42969 7.79C8.75508 7.93021 9.20919 8.18944 9.63891 8.47131C10.0776 8.75906 10.4768 9.06127 10.6827 9.2742C10.4759 9.49311 10.0721 9.8028 9.63048 10.0946C9.1986 10.3799 8.74515 10.6385 8.42697 10.771C8.37532 10.412 8.34922 9.85755 8.34972 9.29382Z" fill="#40B5E8" stroke="#40B5E8" stroke-width="0.2"/>
</svg>
