<svg width="16" height="18" viewBox="0 0 16 18" fill="none" xmlns="http://www.w3.org/2000/svg">
<path d="M1.14427 2.15779L10.5718 0.811539C10.625 0.803907 10.6792 0.807801 10.7308 0.822958C10.7823 0.838115 10.83 0.864181 10.8707 0.899389C10.9113 0.934596 10.9438 0.978123 10.9662 1.02702C10.9885 1.07592 11 1.12904 11 1.18279V16.8173C11 16.871 10.9885 16.924 10.9662 16.9729C10.9439 17.0217 10.9114 17.0652 10.8709 17.1004C10.8304 17.1356 10.7828 17.1616 10.7313 17.1769C10.6798 17.1921 10.6257 17.1961 10.5725 17.1885L1.14352 15.8423C0.964732 15.8168 0.801137 15.7277 0.682784 15.5913C0.564431 15.4549 0.499269 15.2804 0.499268 15.0998V2.90029C0.499269 2.7197 0.564431 2.54517 0.682784 2.40877C0.801137 2.27237 0.964732 2.18325 1.14352 2.15779H1.14427ZM2.00002 3.55129V14.4488L9.50002 15.5205V2.47954L2.00002 3.55129ZM11.75 14.25H14V3.75004H11.75V2.25004H14.75C14.9489 2.25004 15.1397 2.32906 15.2803 2.46971C15.421 2.61036 15.5 2.80113 15.5 3.00004V15C15.5 15.199 15.421 15.3897 15.2803 15.5304C15.1397 15.671 14.9489 15.75 14.75 15.75H11.75V14.25ZM2.75002 6.00004H8.75002V10.5H4.25002V12H2.75002V6.00004ZM4.25002 7.50004V9.00004H7.25002V7.50004H4.25002Z" fill="#FF8F6B"/>
</svg>
