<svg width="17" height="18" viewBox="0 0 17 18" fill="none" xmlns="http://www.w3.org/2000/svg">
<path d="M10.1759 13.3387L6.67673 11.4304C6.21989 11.9188 5.62672 12.2585 4.97429 12.4053C4.32186 12.5521 3.64035 12.4993 3.01833 12.2538C2.39631 12.0082 1.86253 11.5812 1.48637 11.0283C1.11021 10.4753 0.909058 9.82205 0.909058 9.15331C0.909058 8.48456 1.11021 7.83128 1.48637 7.27836C1.86253 6.72543 2.39631 6.29844 3.01833 6.05286C3.64035 5.80728 4.32186 5.75448 4.97429 5.90132C5.62672 6.04816 6.21989 6.38784 6.67673 6.87623L10.1767 4.96789C9.97803 4.18129 10.073 3.34922 10.4439 2.62764C10.8148 1.90607 11.4362 1.34454 12.1915 1.04831C12.9468 0.752077 13.7842 0.74148 14.5467 1.0185C15.3093 1.29553 15.9446 1.84116 16.3337 2.55311C16.7227 3.26506 16.8387 4.09447 16.66 4.88585C16.4812 5.67723 16.02 6.37626 15.3628 6.8519C14.7055 7.32755 13.8973 7.54715 13.0897 7.46955C12.2821 7.39196 11.5306 7.02248 10.9759 6.43039L7.4759 8.33873C7.61023 8.87319 7.61023 9.43259 7.4759 9.96706L10.9751 11.8754C11.5297 11.2833 12.2813 10.9138 13.0889 10.8362C13.8965 10.7586 14.7047 10.9782 15.3619 11.4539C16.0192 11.9295 16.4804 12.6286 16.6591 13.4199C16.8379 14.2113 16.7219 15.0407 16.3328 15.7527C15.9438 16.4646 15.3084 17.0103 14.5459 17.2873C13.7833 17.5643 12.9459 17.5537 12.1906 17.2575C11.4353 16.9612 10.814 16.3997 10.4431 15.6781C10.0722 14.9566 9.97719 14.1253 10.1759 13.3387ZM4.24256 10.8196C4.68459 10.8196 5.10851 10.644 5.42107 10.3314C5.73363 10.0188 5.90923 9.59492 5.90923 9.15289C5.90923 8.71086 5.73363 8.28694 5.42107 7.97438C5.10851 7.66182 4.68459 7.48623 4.24256 7.48623C3.80054 7.48623 3.37661 7.66182 3.06405 7.97438C2.75149 8.28694 2.5759 8.71086 2.5759 9.15289C2.5759 9.59492 2.75149 10.0188 3.06405 10.3314C3.37661 10.644 3.80054 10.8196 4.24256 10.8196ZM13.4092 5.81956C13.8513 5.81956 14.2752 5.64396 14.5877 5.3314C14.9003 5.01884 15.0759 4.59492 15.0759 4.15289C15.0759 3.71087 14.9003 3.28694 14.5877 2.97438C14.2752 2.66182 13.8513 2.48623 13.4092 2.48623C12.9672 2.48623 12.5433 2.66182 12.2307 2.97438C11.9182 3.28694 11.7426 3.71087 11.7426 4.15289C11.7426 4.59492 11.9182 5.01884 12.2307 5.3314C12.5433 5.64396 12.9672 5.81956 13.4092 5.81956ZM13.4092 15.8196C13.8513 15.8196 14.2752 15.644 14.5877 15.3314C14.9003 15.0188 15.0759 14.5949 15.0759 14.1529C15.0759 13.7109 14.9003 13.2869 14.5877 12.9744C14.2752 12.6618 13.8513 12.4862 13.4092 12.4862C12.9672 12.4862 12.5433 12.6618 12.2307 12.9744C11.9182 13.2869 11.7426 13.7109 11.7426 14.1529C11.7426 14.5949 11.9182 15.0188 12.2307 15.3314C12.5433 15.644 12.9672 15.8196 13.4092 15.8196Z" fill="#666666"/>
</svg>
