<svg width="14" height="14" viewBox="0 0 14 14" fill="none" xmlns="http://www.w3.org/2000/svg">
<path d="M13.6305 5.11933C13.5886 4.99591 13.5115 4.88746 13.4087 4.80737C13.3058 4.72729 13.1818 4.67907 13.0519 4.66867L9.2512 4.36667L7.60654 0.726002C7.55416 0.608744 7.46896 0.50915 7.36123 0.43924C7.2535 0.369331 7.12784 0.332094 6.99942 0.332024C6.87099 0.331953 6.74529 0.369052 6.63749 0.438843C6.52968 0.508634 6.44438 0.608134 6.39187 0.725335L4.7472 4.36667L0.946537 4.66867C0.818841 4.67878 0.696762 4.72548 0.594907 4.80316C0.493052 4.88084 0.415732 4.98622 0.372199 5.10669C0.328666 5.22716 0.320762 5.35762 0.349434 5.48247C0.378105 5.60732 0.442138 5.72126 0.53387 5.81067L3.34254 8.54867L2.3492 12.85C2.31904 12.9802 2.32871 13.1165 2.37695 13.2411C2.42519 13.3657 2.50978 13.473 2.61974 13.549C2.7297 13.6249 2.85995 13.6661 2.99359 13.6671C3.12724 13.6681 3.2581 13.629 3.3692 13.5547L6.9992 11.1347L10.6292 13.5547C10.7428 13.6301 10.8767 13.6689 11.013 13.6659C11.1492 13.6629 11.2813 13.6183 11.3915 13.538C11.5016 13.4577 11.5845 13.3455 11.629 13.2167C11.6736 13.0879 11.6776 12.9485 11.6405 12.8173L10.4212 8.55067L13.4452 5.82934C13.6432 5.65067 13.7159 5.372 13.6305 5.11933Z" fill="#F0B826"/>
</svg>
