<svg width="20" height="20" viewBox="0 0 20 20" fill="none" xmlns="http://www.w3.org/2000/svg">
<path d="M10 19.1667C4.93729 19.1667 0.833374 15.0627 0.833374 10C0.833374 4.93725 4.93729 0.833328 10 0.833328C15.0628 0.833328 19.1667 4.93725 19.1667 10C19.1667 15.0627 15.0628 19.1667 10 19.1667ZM7.90087 17.0281C6.9965 15.1098 6.47259 13.0344 6.35812 10.9167H2.72354C2.90191 12.3273 3.48614 13.6558 4.40523 14.7407C5.32432 15.8256 6.53872 16.6203 7.90087 17.0281ZM8.19421 10.9167C8.33262 13.1524 8.97154 15.2525 10 17.106C11.0563 15.2035 11.6734 13.0887 11.8059 10.9167H8.19421ZM17.2765 10.9167H13.642C13.5275 13.0344 13.0036 15.1098 12.0992 17.0281C13.4614 16.6203 14.6758 15.8256 15.5949 14.7407C16.5139 13.6558 17.0982 12.3273 17.2765 10.9167ZM2.72354 9.08333H6.35812C6.47259 6.96563 6.9965 4.89021 7.90087 2.97191C6.53872 3.37972 5.32432 4.17435 4.40523 5.25927C3.48614 6.34418 2.90191 7.67267 2.72354 9.08333ZM8.19512 9.08333H11.805C11.6727 6.91138 11.056 4.79657 10 2.894C8.94375 4.79649 8.32672 6.91131 8.19421 9.08333H8.19512ZM12.0992 2.97191C13.0036 4.89021 13.5275 6.96563 13.642 9.08333H17.2765C17.0982 7.67267 16.5139 6.34418 15.5949 5.25927C14.6758 4.17435 13.4614 3.37972 12.0992 2.97191Z" fill="#666666"/>
</svg>
