<svg xmlns="http://www.w3.org/2000/svg" viewBox="0 0 249.7 117.84"><defs><style>.cls-1{fill:#1f2937;stroke:#f2f6f9;stroke-miterlimit:10;stroke-width:5px;}</style></defs><g id="Layer_2" data-name="Layer 2"><g id="Layer_1-2" data-name="Layer 1"><path class="cls-1" d="M92.5,77.21a34.64,34.64,0,0,1-5,18.05Q82.42,103.71,72,109t-26.81,5.26a94.11,94.11,0,0,1-22.48-2.78,67.24,67.24,0,0,1-19.53-7.92l11-23.08a55.51,55.51,0,0,0,14.49,6.65,54.45,54.45,0,0,0,15.57,2.34q7.76,0,12.56-3A9.48,9.48,0,0,0,61.65,78a9.58,9.58,0,0,0-1.86-5.82c-1.23-1.7-3.35-3-6.35-3.88S46.15,67,40.58,67H11.12l5.43-63.4H85.68V27.29H41.94L40.62,43.1h7.24q16.13,0,25.89,4.58T88,59.92A33.55,33.55,0,0,1,92.5,77.21Z"/><path class="cls-1" d="M127.67,115.34A44.55,44.55,0,0,1,86,89.46q-6.19-12.57-6.2-30.54T86,28.38A45.71,45.71,0,0,1,103,9.17,46,46,0,0,1,127.67,2.5a44.51,44.51,0,0,1,41.54,25.88q6.19,12.56,6.2,30.54t-6.2,30.54a44.51,44.51,0,0,1-41.54,25.88Zm0-25.11a13.47,13.47,0,0,0,8.76-3.1q3.8-3.1,6-10t2.17-18.21q0-11.47-2.17-18.29t-6-9.92a13.93,13.93,0,0,0-17.52,0q-3.8,3.1-6,9.92t-2.25,18.29q0,11.31,2.25,18.21t6,10A13.43,13.43,0,0,0,127.67,90.23Z"/><path class="cls-1" d="M247.2,78.13a33,33,0,0,1-5,17.52q-5,8.22-15.42,13.42t-26.82,5.18a93.75,93.75,0,0,1-22.55-2.78,69.43,69.43,0,0,1-19.61-7.92l11.16-23.08a52.67,52.67,0,0,0,14.49,6.65A55.62,55.62,0,0,0,199,89.46q7.9,0,12.56-3a9.37,9.37,0,0,0,4.65-8.37,9,9,0,0,0-3.88-7.66q-3.87-2.88-12.71-2.88H186.75V48.23l19.37-20.94H163.34V3.58h78.43V22.8L219.41,47c7.11,1.38,12.88,4,17.32,7.87Q247.2,63.87,247.2,78.13Z"/></g></g></svg>