<svg xmlns="http://www.w3.org/2000/svg" viewBox="0 0 226.1 117.84"><defs><style>.cls-1{fill:#1f2937;stroke:#f2f6f9;stroke-miterlimit:10;stroke-width:5px;}</style></defs><g id="Layer_2" data-name="Layer 2"><g id="Layer_1-2" data-name="Layer 1"><polygon class="cls-1" points="105.89 68.06 105.89 92.4 89.77 92.4 89.77 113.17 59.85 113.17 59.85 92.4 2.5 92.4 2.5 72.4 51.17 4.67 82.95 4.67 38.7 68.06 60.78 68.06 60.78 49.62 89.77 49.62 89.77 68.06 105.89 68.06"/><path class="cls-1" d="M139.64,115.34A44.52,44.52,0,0,1,98,89.46q-6.21-12.57-6.2-30.54T98,28.38a45.69,45.69,0,0,1,17-19.21A46,46,0,0,1,139.64,2.5a44.51,44.51,0,0,1,41.54,25.88q6.19,12.56,6.2,30.54t-6.2,30.54a44.51,44.51,0,0,1-41.54,25.88Zm0-25.11a13.43,13.43,0,0,0,8.76-3.1q3.79-3.1,6-10t2.17-18.21q0-11.47-2.17-18.29t-6-9.92a13.93,13.93,0,0,0-17.52,0q-3.8,3.1-6,9.92t-2.25,18.29q0,11.31,2.25,18.21t6,10A13.45,13.45,0,0,0,139.64,90.23Z"/><polygon class="cls-1" points="223.6 4.67 223.6 113.17 192.91 113.17 192.91 28.38 172.76 28.38 172.76 4.67 223.6 4.67"/></g></g></svg>