<svg xmlns="http://www.w3.org/2000/svg" viewBox="0 0 272.49 117.84"><defs><style>.cls-1{fill:#1f2937;stroke:#f2f6f9;stroke-miterlimit:10;stroke-width:5px;}</style></defs><g id="Layer_2" data-name="Layer 2"><g id="Layer_1-2" data-name="Layer 1"><polygon class="cls-1" points="105.89 68.06 105.89 92.4 89.77 92.4 89.77 113.17 59.85 113.17 59.85 92.4 2.5 92.4 2.5 72.4 51.17 4.67 82.95 4.67 38.7 68.06 60.78 68.06 60.78 49.62 89.77 49.62 89.77 68.06 105.89 68.06"/><path class="cls-1" d="M136,115.34a44.55,44.55,0,0,1-41.7-25.88q-6.19-12.57-6.2-30.54t6.2-30.54a45.71,45.71,0,0,1,17-19.21A46,46,0,0,1,136,2.5a44.51,44.51,0,0,1,41.54,25.88q6.19,12.56,6.2,30.54t-6.2,30.54A44.51,44.51,0,0,1,136,115.34Zm0-25.11a13.47,13.47,0,0,0,8.76-3.1q3.79-3.1,6-10t2.17-18.21q0-11.47-2.17-18.29t-6-9.92a13.93,13.93,0,0,0-17.52,0q-3.8,3.1-6,9.92T119,58.92q0,11.31,2.25,18.21t6,10A13.43,13.43,0,0,0,136,90.23Z"/><polygon class="cls-1" points="269.99 68.06 269.99 92.4 253.87 92.4 253.87 113.17 223.96 113.17 223.96 92.4 166.61 92.4 166.61 72.4 215.28 4.67 247.05 4.67 202.81 68.06 224.89 68.06 224.89 49.62 253.87 49.62 253.87 68.06 269.99 68.06"/></g></g></svg>