<?xml version="1.0" encoding="utf-8"?>
<!-- Generator: Adobe Illustrator 26.1.0, SVG Export Plug-In . SVG Version: 6.00 Build 0)  -->
<svg version="1.1" id="Layer_1" xmlns="http://www.w3.org/2000/svg" xmlns:xlink="http://www.w3.org/1999/xlink" x="0px" y="0px"
	 viewBox="0 0 100 100" style="enable-background:new 0 0 100 100;" xml:space="preserve">
<style type="text/css">
	.st0{fill:#DF4F5F;}
	.st1{fill:#FEFDFD;}
	.st2{fill:#4CAD50;}
	.st3{fill:#FFFFFF;}
	.st4{fill:#FEBF48;}
</style>
<g>
	<circle class="st4" cx="50" cy="50" r="50"/>
	<g>
		<path class="st1" d="M49.7,79.6C33.5,79.5,20.3,66.2,20.4,50c0-16.3,13.3-29.6,29.6-29.6c8,0,15.4,3.2,21.1,8.8
			c5.6,5.6,8.6,13,8.6,20.9c-0.1,16.3-13.5,29.6-29.8,29.6C49.8,79.6,49.7,79.6,49.7,79.6z M50,27.9c-12.2,0-22.1,9.9-22.1,22
			c0,5.9,2.3,11.5,6.5,15.7c4.2,4.2,9.7,6.5,15.6,6.5c12.2,0,22.1-9.9,22.1-22.1c0-5.9-2.3-11.4-6.5-15.6
			C61.4,30.2,55.9,27.9,50,27.9l0-1.2L50,27.9z"/>
		<path class="st1" d="M56.4,61.8c-0.8,0-1.5-0.3-2.1-0.9c-2-2-4.1-4-6.1-6.1l-0.5-0.5c-0.6-0.6-0.9-1.4-0.9-2.4c0-1.5,0-3.1,0-4.6
			l0-2.8h0l0-0.9c0-1.6,0-3.1,0-4.7c0-1.6,1.2-2.9,2.7-3c0.1,0,0.3,0,0.4,0c1.5,0,2.7,0.9,3.1,2.3c0.1,0.4,0.1,0.8,0.1,1.2
			c0,3.8,0,7.5,0,11.3c0,0.1,0,0.1,0.1,0.2c1.7,1.7,3.4,3.4,5.1,5.1l0.4,0.4c0.9,0.9,1.2,2,0.9,3.2c-0.3,1.2-1.2,2-2.3,2.2
			C56.9,61.8,56.7,61.8,56.4,61.8z"/>
	</g>
</g>
</svg>
