<?xml version="1.0" encoding="utf-8"?>
<!-- Generator: Adobe Illustrator 26.1.0, SVG Export Plug-In . SVG Version: 6.00 Build 0)  -->
<svg version="1.1" id="Layer_1" xmlns="http://www.w3.org/2000/svg" xmlns:xlink="http://www.w3.org/1999/xlink" x="0px" y="0px"
	 viewBox="0 0 100 100" style="enable-background:new 0 0 100 100;" xml:space="preserve">
<style type="text/css">
	.st0{fill:#DF4F5F;}
	.st1{fill:#FEFDFD;}
	.st2{fill:#4CAD50;}
	.st3{fill:#FFFFFF;}
	.st4{fill:#FEBF48;}
</style>
<g>
	<circle class="st0" cx="50" cy="50" r="50"/>
	<g>
		<path class="st1" d="M68.8,62.8c-0.1,0.1-0.2,0.3-0.4,0.4c-1.8,1.8-3.5,3.5-5.2,5.3c-0.4,0.5-0.7,0.3-1,0
			c-3.9-3.9-7.8-7.8-11.6-11.7c-0.5-0.5-0.7-0.5-1.1,0c-3.9,3.9-7.7,7.8-11.6,11.7c-0.4,0.5-0.7,0.4-1.1,0c-1.7-1.7-3.4-3.5-5.2-5.2
			c-0.4-0.4-0.4-0.6,0-1c3.9-3.9,7.8-7.8,11.7-11.6c0.5-0.5,0.4-0.7,0-1.2c-3.9-3.8-7.7-7.7-11.6-11.6c-0.4-0.4-0.5-0.6,0-1.1
			c1.7-1.7,3.5-3.4,5.1-5.2c0.5-0.5,0.7-0.4,1.1,0c3.8,3.9,7.7,7.7,11.6,11.6c0.5,0.5,0.7,0.5,1.2,0c3.8-3.9,7.7-7.7,11.5-11.6
			c0.5-0.5,0.7-0.5,1.2,0c1.7,1.7,3.4,3.4,5.1,5.1c0.4,0.4,0.4,0.7,0,1.1c-3.9,3.9-7.8,7.8-11.7,11.6c-0.5,0.5-0.4,0.7,0,1.1
			c3.9,3.8,7.7,7.7,11.6,11.6C68.5,62.3,68.7,62.5,68.8,62.8z"/>
	</g>
</g>
</svg>
