<svg xmlns="http://www.w3.org/2000/svg" width="14.088" height="13.015" viewBox="0 0 14.088 13.015">
  <path d="M9.041,9.983l6.113-6,1.1,1.082-1.1,1.082,1.927,1.892-1.1,1.082L14.052,7.225l-1.1,1.082L14.6,9.928l-1.1,1.082L11.849,9.388l-1.707,1.677a3.779,3.779,0,0,1-.79,5.067,3.948,3.948,0,0,1-5.213-.253,3.774,3.774,0,0,1-.268-5.128,3.943,3.943,0,0,1,5.17-.768Zm-.5,4.814a2.268,2.268,0,0,0,.657-2.24,2.316,2.316,0,0,0-1.679-1.649,2.365,2.365,0,0,0-2.281.645,2.265,2.265,0,0,0,0,3.245,2.367,2.367,0,0,0,3.3,0Z" transform="translate(-2.993 -3.979)" fill="#02a2ff"/>
</svg>
