<svg xmlns="http://www.w3.org/2000/svg" width="11.275" height="13.177" viewBox="0 0 11.275 13.177">
  <path id="resetMFAicon" d="M8.9,8.967v1.226A3.677,3.677,0,0,0,5.226,13.87H4A4.9,4.9,0,0,1,8.9,8.967Zm0-.613A3.677,3.677,0,1,1,12.58,4.677,3.676,3.676,0,0,1,8.9,8.354Zm0-1.226A2.451,2.451,0,1,0,6.451,4.677,2.451,2.451,0,0,0,8.9,7.129Zm1.59,4.788a2.151,2.151,0,0,1,0-.995l-.608-.351L10.5,9.509l.608.351a2.143,2.143,0,0,1,.861-.5v-.7h1.226v.7a2.14,2.14,0,0,1,.861.5l.608-.351.613,1.061-.608.351a2.151,2.151,0,0,1,0,.994l.608.351-.613,1.061-.608-.351a2.143,2.143,0,0,1-.861.5v.7H11.967v-.7a2.143,2.143,0,0,1-.861-.5l-.608.351-.613-1.061.608-.351Zm2.087.422a.919.919,0,1,0-.919-.919A.919.919,0,0,0,12.58,12.338Z" transform="translate(-4 -1)" fill="#888"/>
</svg>
