<svg xmlns="http://www.w3.org/2000/svg" width="17.8" height="17.8" viewBox="0 0 17.8 17.8">
  <path id="setting" d="M7.294,3.468,9.423,1.339a.817.817,0,0,1,1.155,0l2.129,2.129h3.01a.817.817,0,0,1,.817.817v3.01l2.129,2.129a.817.817,0,0,1,0,1.155l-2.129,2.129v3.01a.817.817,0,0,1-.817.817h-3.01l-2.129,2.129a.817.817,0,0,1-1.155,0L7.294,16.532H4.284a.817.817,0,0,1-.817-.817v-3.01L1.339,10.577a.817.817,0,0,1,0-1.155L3.468,7.294V4.284a.817.817,0,0,1,.817-.817ZM5.1,5.1v2.87L3.072,10,5.1,12.029V14.9h2.87L10,16.928,12.029,14.9H14.9v-2.87L16.928,10,14.9,7.971V5.1h-2.87L10,3.072,7.971,5.1ZM10,13.266A3.266,3.266,0,1,1,13.266,10,3.266,3.266,0,0,1,10,13.266Zm0-1.633A1.633,1.633,0,1,0,8.367,10,1.633,1.633,0,0,0,10,11.633Z" transform="translate(-1.1 -1.1)" fill="#fff"/>
</svg>
