<?xml version="1.0" encoding="utf-8"?>
<!-- Generator: Adobe Illustrator 26.1.0, SVG Export Plug-In . SVG Version: 6.00 Build 0)  -->
<svg version="1.1" id="Layer_1" xmlns="http://www.w3.org/2000/svg" xmlns:xlink="http://www.w3.org/1999/xlink" x="0px" y="0px"
	 viewBox="0 0 100 100" style="enable-background:new 0 0 100 100;" xml:space="preserve">
<style type="text/css">
	.st0{fill:#DF4F5F;}
	.st1{fill:#FEFDFD;}
	.st2{fill:#4CAD50;}
	.st3{fill:#FFFFFF;}
	.st4{fill:#FEBF48;}
</style>
<g>
	<circle class="st2" cx="50" cy="50" r="50"/>
	<path class="st3" d="M43.7,53.1c0.2-0.3,0.3-0.5,0.5-0.7c6.6-6.6,13.1-13.1,19.7-19.7c1.2-1.2,1.9-1.2,3.2,0
		c1.6,1.6,3.3,3.3,4.9,4.9c1,1,1,1.8,0,2.8c-9,9-18,18-27,26.9c-1,1-1.8,1-2.8,0c-4.7-4.7-9.4-9.4-14.1-14.2c-1-1-1-1.8,0-2.8
		c1.7-1.7,3.4-3.4,5-5c1-1,1.8-1,2.8,0c2.4,2.4,4.7,4.7,7.1,7.1C43.2,52.7,43.4,52.8,43.7,53.1z"/>
</g>
</svg>
